<!-- icon666.com - MILLIONS vector ICONS FREE --><svg id="Capa_1" enable-background="new 0 0 512 512" viewBox="0 0 512 512" xmlns="http://www.w3.org/2000/svg"><g><path d="m512 256c0 141.385-114.615 256-256 256s-256-114.615-256-256 114.615-256 256-256 256 114.615 256 256z" fill="#232e7a"></path><path d="m457.829 361.988c0 52.931-42.909 95.84-95.84 95.84-19.826 0-38.246-6.02-53.531-16.332-4.182 39.626-37.703 70.504-78.437 70.504-43.562 0-78.875-35.314-78.875-78.875 0-16.32 4.956-31.481 13.445-44.063-38.644-26.598-65.126-69.593-69.402-118.944-52.375-20.152-89.544-70.947-89.544-130.422 0-77.152 62.544-139.696 139.696-139.696 61.921 0 114.432 40.288 132.751 96.08 14.751 2.019 28.867 6.031 42.069 11.755 16.167-12.44 36.416-19.837 58.392-19.837 52.931 0 95.84 42.909 95.84 95.84 0 39.391-23.764 73.231-57.738 87.967-.344 3.54-.802 7.047-1.371 10.516 25.656 17.199 42.545 46.46 42.545 79.667z" fill="#2b3894"></path><path d="m456.801 313.073c-3.962 2.482-7.31 5.83-9.792 9.792-.459.733-1.528.733-1.987 0-2.482-3.962-5.83-7.31-9.792-9.792-.733-.459-.733-1.527 0-1.987 3.962-2.482 7.31-5.83 9.792-9.792.459-.733 1.528-.733 1.987 0 2.482 3.962 5.83 7.31 9.792 9.792.733.459.733 1.528 0 1.987zm-373.943-95.784c-3.962-2.482-7.31-5.83-9.792-9.792-.459-.733-1.528-.733-1.987 0-2.482 3.962-5.83 7.31-9.792 9.792-.733.459-.733 1.527 0 1.987 3.962 2.482 7.31 5.83 9.792 9.792.459.733 1.528.733 1.987 0 2.482-3.962 5.83-7.31 9.792-9.792.733-.46.733-1.528 0-1.987zm-22.291-29.796c-3.962-2.422-7.31-5.689-9.792-9.555-.459-.715-1.528-.715-1.987 0-2.482 3.866-5.83 7.133-9.792 9.555-.733.448-.733 1.49 0 1.938 3.962 2.422 7.31 5.689 9.792 9.555.459.716 1.528.716 1.987 0 2.482-3.866 5.83-7.133 9.792-9.555.733-.447.733-1.49 0-1.938zm274.312-130.07c-3.962-2.422-7.31-5.689-9.792-9.555-.459-.715-1.528-.715-1.987 0-2.482 3.866-5.83 7.133-9.792 9.555-.733.448-.733 1.491 0 1.939 3.962 2.422 7.31 5.689 9.792 9.555.459.715 1.528.715 1.987 0 2.482-3.866 5.83-7.133 9.792-9.555.733-.448.733-1.49 0-1.939zm-187.935 346.339c-3.962-2.422-7.31-5.689-9.792-9.555-.459-.715-1.528-.715-1.987 0-2.482 3.866-5.83 7.133-9.792 9.555-.733.448-.733 1.49 0 1.939 3.962 2.422 7.31 5.689 9.792 9.555.459.716 1.528.716 1.987 0 2.482-3.866 5.83-7.133 9.792-9.555.733-.448.733-1.49 0-1.939z" fill="#717ed6"></path><path d="m478.824 122.729-15.708 70.425c-.289 1.295-1.081 2.422-2.201 3.133l-87.33 55.419-38.65 68.207-4.241 63.946 117.779 52.209c2.524 1.119 3.664 4.073 2.544 6.598-.827 1.865-2.656 2.975-4.574 2.975-.677 0-1.365-.138-2.023-.43l-116.777-51.765-31.117 56.622c-.576 1.048-1.509 1.855-2.629 2.274l-82.124 30.744c-.578.216-1.17.318-1.752.318-2.026 0-3.932-1.239-4.684-3.248-.968-2.586.343-5.468 2.93-6.436l80.387-30.094 30.499-55.497-98.637-86.269c-.469-.41-.857-.904-1.145-1.457l-61.601-118.461-116.689-64.359c-2.418-1.333-3.297-4.375-1.964-6.793 1.334-2.418 4.376-3.297 6.793-1.963l118.015 65.091c.863.476 1.567 1.196 2.021 2.071l58.486 112.472 42.492-60.938 5.9-78.55-61.029-96.152-71.415-26.234c-2.592-.952-3.921-3.825-2.969-6.417.952-2.593 3.825-3.922 6.417-2.97l73.004 26.818c1.031.379 1.909 1.087 2.498 2.014l62.825 98.982c.577.909.845 1.98.764 3.055l-6.127 81.567c-.067.893-.373 1.751-.884 2.485l-45.438 65.162 90.681 79.309 3.879-58.482c.05-.75.269-1.479.639-2.134l39.83-70.288c.404-.714.979-1.317 1.671-1.757l81.496-51.717-72.937-43.147c-2.376-1.406-3.164-4.473-1.757-6.85 1.405-2.377 4.473-3.165 6.849-1.758l74.032 43.795 14.209-63.704c.601-2.694 3.271-4.396 5.968-3.791 2.698.602 4.395 3.275 3.794 5.97z" fill="#717ed6"></path><path d="m466.071 151.936c3.2 0 5.577 2.965 4.88 6.088l-7.836 35.13c-.289 1.295-1.081 2.422-2.201 3.133l-36.746 23.319c-3.329 2.112-7.679-.279-7.679-4.222 0-1.712.876-3.304 2.321-4.222l29.857-18.948-29.724-17.584c-1.521-.9-2.454-2.536-2.454-4.303v-.001c0-3.872 4.213-6.275 7.546-4.303l30.82 18.232 6.337-28.408c.509-2.285 2.537-3.911 4.879-3.911zm-17.598 284.132-86.186-38.205c-3.306-1.465-7.026.955-7.026 4.571v.001c0 1.978 1.166 3.769 2.974 4.571l86.186 38.205c.659.292 1.347.43 2.023.43 1.917 0 3.747-1.109 4.574-2.975 1.119-2.524-.02-5.478-2.545-6.598zm-189.133-327.003-15.877-25.015c-.917-1.445-2.51-2.32-4.221-2.32h-.001c-3.943 0-6.334 4.35-4.221 7.679l15.877 25.015c.917 1.445 2.51 2.32 4.221 2.32h.001c3.942 0 6.334-4.351 4.221-7.679zm-9.141 149.565c-2.193-.985-4.776-.271-6.15 1.701l-19.616 28.131-27.29-52.481c-.519-.999-1.361-1.793-2.387-2.254-4.324-1.942-8.672 2.662-6.485 6.868l31.102 59.812c.287.553.675 1.047 1.145 1.457l59.325 51.886c2.529 2.212 6.476 1.35 7.853-1.715.901-2.006.386-4.365-1.269-5.812l-55.953-48.936 21.78-31.234c1.79-2.573.804-6.139-2.055-7.423zm-169.337-119.106 40.299 22.227c3.332 1.838 7.414-.573 7.414-4.378 0-1.821-.99-3.498-2.585-4.378l-40.299-22.227c-3.332-1.838-7.414.573-7.414 4.378 0 1.821.99 3.499 2.585 4.378z" fill="#a6aee5"></path><path d="m440.016 385.9 7.566 11.249c.693 1.03 1.999 1.454 3.165 1.028l12.733-4.653c1.799-.658 3.692.717 3.622 2.632l-.491 13.548c-.045 1.241.762 2.352 1.956 2.692l13.036 3.72c1.842.526 2.565 2.75 1.384 4.259l-8.36 10.672c-.766.977-.766 2.351 0 3.328l8.36 10.672c1.182 1.508.459 3.733-1.384 4.258l-13.036 3.72c-1.194.341-2.001 1.452-1.956 2.692l.491 13.548c.069 1.915-1.823 3.29-3.622 2.632l-12.733-4.653c-1.166-.426-2.472-.002-3.165 1.028l-7.566 11.249c-1.069 1.59-3.408 1.59-4.478 0l-7.566-11.249c-.693-1.03-1.999-1.454-3.165-1.028l-12.733 4.653c-1.799.658-3.692-.717-3.622-2.632l.491-13.548c.045-1.241-.762-2.352-1.956-2.692l-13.036-3.72c-1.842-.526-2.565-2.75-1.384-4.258l8.36-10.672c.766-.977.766-2.351 0-3.328l-8.36-10.672c-1.181-1.508-.459-3.733 1.384-4.259l13.036-3.72c1.194-.341 2.001-1.452 1.956-2.692l-.491-13.548c-.069-1.915 1.823-3.29 3.622-2.632l12.733 4.653c1.166.426 2.472.002 3.165-1.028l7.566-11.249c1.069-1.59 3.408-1.59 4.478 0zm-139.638 68.465c.646-.193 1.196.51.846 1.086-2.641 4.337-7.419 7.228-12.872 7.21-8.205-.027-14.921-6.744-14.949-14.949-.018-5.457 2.877-10.239 7.219-12.878.573-.348 1.272.198 1.079.841-.434 1.447-.656 2.986-.629 4.581.137 8.043 6.693 14.598 14.735 14.735 1.592.027 3.128-.194 4.571-.626zm40.305-127.868c.646-.193 1.196.51.846 1.086-2.641 4.337-7.419 7.228-12.872 7.21-8.205-.027-14.921-6.744-14.949-14.949-.018-5.457 2.877-10.239 7.219-12.878.573-.348 1.272.198 1.079.841-.434 1.447-.656 2.986-.629 4.581.137 8.043 6.693 14.598 14.735 14.735 1.591.026 3.127-.194 4.571-.626zm41.553-71.149c.646-.193 1.196.51.846 1.086-2.641 4.337-7.419 7.228-12.872 7.21-8.205-.027-14.921-6.744-14.949-14.949-.018-5.457 2.877-10.239 7.219-12.878.573-.348 1.272.198 1.079.841-.434 1.447-.656 2.986-.629 4.581.137 8.043 6.693 14.598 14.735 14.735 1.592.026 3.127-.194 4.571-.626zm-99.261-17.426c.646-.193 1.196.51.846 1.086-2.641 4.337-7.419 7.228-12.872 7.21-8.205-.027-14.921-6.744-14.949-14.949-.018-5.457 2.877-10.239 7.219-12.878.573-.348 1.272.198 1.079.841-.434 1.447-.656 2.986-.629 4.581.137 8.043 6.693 14.598 14.735 14.735 1.592.027 3.127-.194 4.571-.626zm-108.893-52.921c.646-.193 1.196.51.846 1.086-2.641 4.337-7.419 7.228-12.872 7.21-8.205-.027-14.921-6.744-14.949-14.949-.018-5.457 2.877-10.239 7.219-12.878.573-.348 1.272.198 1.079.841-.434 1.447-.656 2.986-.629 4.581.137 8.043 6.693 14.598 14.735 14.735 1.591.026 3.127-.194 4.571-.626zm115.83-29.402c.646-.193 1.196.51.846 1.086-2.641 4.337-7.419 7.228-12.872 7.21-8.205-.027-14.921-6.744-14.949-14.949-.018-5.457 2.877-10.239 7.219-12.878.573-.348 1.272.198 1.079.841-.434 1.447-.656 2.986-.629 4.581.137 8.043 6.693 14.598 14.735 14.735 1.591.027 3.127-.193 4.571-.626zm-62.915-96.549c.646-.193 1.196.51.846 1.086-2.641 4.337-7.419 7.228-12.872 7.21-8.205-.027-14.921-6.744-14.949-14.949-.018-5.457 2.877-10.239 7.219-12.878.573-.348 1.272.198 1.079.841-.434 1.447-.656 2.986-.629 4.581.137 8.043 6.693 14.598 14.735 14.735 1.591.027 3.127-.194 4.571-.626zm241.141 138.494c.646-.193 1.196.51.846 1.086-2.641 4.337-7.419 7.228-12.872 7.21-8.205-.027-14.921-6.744-14.949-14.949-.018-5.457 2.877-10.239 7.219-12.878.573-.348 1.272.198 1.079.841-.434 1.447-.656 2.986-.629 4.581.137 8.043 6.693 14.598 14.735 14.735 1.592.027 3.127-.194 4.571-.626zm-394.3 159.131c-2.482 3.962-5.83 7.31-9.792 9.792-.733.459-.733 1.528 0 1.987 3.962 2.482 7.31 5.83 9.792 9.792.459.733 1.528.733 1.987 0 2.482-3.962 5.83-7.31 9.792-9.792.733-.459.733-1.528 0-1.987-3.962-2.482-7.31-5.83-9.792-9.792-.459-.733-1.528-.733-1.987 0z" fill="#ffa90b"></path><path d="m442.615 456.422-6.716-3.896c-.459-.266-1.005-.339-1.517-.203l-7.504 1.994c-1.068.284-2.163-.352-2.447-1.419l-1.994-7.504c-.136-.513-.471-.95-.929-1.216l-6.716-3.896c-.955-.554-1.281-1.778-.726-2.734l3.896-6.716c.266-.459.339-1.005.203-1.517l-1.994-7.504c-.284-1.068.352-2.163 1.419-2.447l7.504-1.994c.513-.136.95-.471 1.216-.929l3.896-6.716c.554-.955 1.778-1.281 2.734-.726l6.716 3.896c.459.266 1.005.339 1.517.203l7.504-1.994c1.068-.284 2.163.352 2.447 1.419l1.994 7.504c.136.513.471.95.929 1.216l6.716 3.896c.955.554 1.281 1.778.726 2.734l-3.896 6.716c-.266.459-.339 1.005-.203 1.517l1.994 7.504c.284 1.068-.352 2.163-1.419 2.447l-7.504 1.994c-.513.136-.95.471-1.216.929l-3.896 6.716c-.555.955-1.778 1.28-2.734.726zm-139.212-8.761c0 2.899-.823 5.607-2.247 7.901-2.294 1.425-5.002 2.247-7.901 2.247-8.284 0-15-6.716-15-15 0-2.899.823-5.607 2.247-7.901 2.294-1.425 5.002-2.247 7.901-2.247 8.284 0 15 6.715 15 15zm40.304-127.869c0 2.899-.823 5.607-2.247 7.901-2.294 1.425-5.002 2.247-7.901 2.247-8.284 0-15-6.716-15-15 0-2.899.823-5.607 2.247-7.901 2.294-1.425 5.002-2.247 7.901-2.247 8.285 0 15 6.716 15 15zm41.554-71.149c0 2.899-.823 5.607-2.247 7.901-2.294 1.425-5.002 2.247-7.901 2.247-8.284 0-15-6.716-15-15 0-2.899.823-5.607 2.247-7.901 2.294-1.425 5.002-2.247 7.901-2.247 8.284 0 15 6.716 15 15zm-99.261-17.426c0 2.899-.823 5.607-2.247 7.901-2.294 1.425-5.002 2.247-7.901 2.247-8.284 0-15-6.716-15-15 0-2.899.823-5.607 2.247-7.901 2.294-1.425 5.002-2.247 7.901-2.247 8.284 0 15 6.716 15 15zm-108.894-52.921c0 2.899-.823 5.607-2.247 7.901-2.294 1.425-5.002 2.247-7.901 2.247-8.284 0-15-6.716-15-15 0-2.899.823-5.607 2.247-7.901 2.294-1.425 5.002-2.247 7.901-2.247 8.285 0 15 6.716 15 15zm115.83-29.401c0 2.899-.823 5.607-2.247 7.901-2.294 1.425-5.002 2.247-7.901 2.247-8.284 0-15-6.716-15-15 0-2.899.823-5.607 2.247-7.901 2.294-1.425 5.002-2.247 7.901-2.247 8.284 0 15 6.715 15 15zm-62.915-96.55c0 2.899-.823 5.607-2.247 7.901-2.294 1.425-5.002 2.247-7.901 2.247-8.284 0-15-6.716-15-15 0-2.899.823-5.607 2.247-7.901 2.294-1.425 5.002-2.247 7.901-2.247 8.285 0 15 6.716 15 15zm241.142 138.494c0 2.899-.823 5.607-2.247 7.901-2.294 1.425-5.002 2.247-7.901 2.247-8.284 0-15-6.716-15-15 0-2.899.823-5.607 2.247-7.901 2.294-1.425 5.002-2.247 7.901-2.247 8.284 0 15 6.716 15 15zm-411.7-67.439c.861-.258 1.595.679 1.127 1.447-3.521 5.782-9.893 9.637-17.163 9.613-10.94-.037-19.895-8.992-19.931-19.931-.024-7.276 3.836-13.651 9.625-17.171.764-.464 1.696.265 1.439 1.121-.579 1.929-.875 3.982-.838 6.108.183 10.724 8.923 19.464 19.647 19.647 2.121.037 4.169-.257 6.094-.834zm166.525 363.944c.861-.258 1.595.679 1.127 1.447-3.521 5.782-9.893 9.637-17.163 9.613-10.94-.037-19.895-8.992-19.931-19.931-.024-7.276 3.836-13.651 9.625-17.171.764-.464 1.696.265 1.439 1.121-.579 1.93-.875 3.982-.838 6.108.183 10.724 8.923 19.464 19.647 19.647 2.122.036 4.169-.258 6.094-.834zm115.452-93.697c.861-.258 1.595.679 1.127 1.447-3.521 5.782-9.893 9.637-17.163 9.613-10.94-.037-19.895-8.992-19.931-19.931-.024-7.276 3.836-13.651 9.625-17.171.764-.464 1.696.265 1.439 1.121-.579 1.93-.875 3.982-.838 6.108.183 10.724 8.923 19.464 19.647 19.647 2.122.036 4.169-.258 6.094-.834zm-183.366-360.893c.861-.258 1.595.679 1.127 1.447-3.521 5.782-9.893 9.637-17.163 9.613-10.94-.037-19.895-8.992-19.931-19.931-.024-7.276 3.836-13.651 9.625-17.171.764-.464 1.696.265 1.439 1.121-.579 1.929-.875 3.982-.838 6.108.183 10.724 8.923 19.464 19.647 19.647 2.121.036 4.168-.258 6.094-.834zm240.824 123.704c.861-.258 1.595.679 1.127 1.447-3.521 5.782-9.893 9.637-17.163 9.613-10.94-.037-19.895-8.992-19.931-19.931-.024-7.276 3.836-13.651 9.625-17.171.764-.464 1.696.265 1.439 1.121-.579 1.93-.875 3.982-.838 6.108.183 10.724 8.923 19.464 19.647 19.647 2.121.036 4.169-.258 6.094-.834zm91.013-27.54c.861-.258 1.595.679 1.127 1.447-3.521 5.782-9.893 9.637-17.163 9.613-10.94-.037-19.895-8.992-19.931-19.931-.024-7.276 3.836-13.651 9.625-17.171.764-.464 1.696.265 1.439 1.121-.579 1.929-.875 3.982-.838 6.108.183 10.724 8.923 19.464 19.647 19.647 2.122.036 4.169-.258 6.094-.834z" fill="#ffc14f"></path><path d="m230.021 478.404c0 3.866-1.097 7.475-2.996 10.535-3.059 1.899-6.669 2.996-10.535 2.996-11.046 0-20-8.954-20-20 0-3.866 1.097-7.475 2.996-10.535 3.059-1.899 6.669-2.996 10.535-2.996 11.046 0 20 8.955 20 20zm231.468-50.533-3.896 6.716c-.266.459-.339 1.005-.203 1.517l1.994 7.504c.284 1.068-.352 2.163-1.419 2.447l-7.504 1.994c-.138.037-.271.088-.396.152-12.215-6.996-22.263-17.344-28.891-29.791l3.919-1.041c.512-.136.95-.471 1.216-.929l3.896-6.716c.554-.955 1.778-1.281 2.733-.726l6.716 3.896c.459.266 1.005.339 1.517.203l7.504-1.994c1.067-.284 2.163.352 2.447 1.419l1.994 7.504c.136.513.47.95.929 1.216l6.716 3.896c.957.554 1.282 1.778.728 2.733zm-397.993-313.41c0 3.866-1.097 7.475-2.996 10.535-3.059 1.899-6.669 2.996-10.535 2.996-11.046 0-20-8.954-20-20 0-3.866 1.097-7.475 2.996-10.535 3.059-1.899 6.669-2.996 10.535-2.996 11.045 0 20 8.954 20 20zm281.977 270.246c0 3.866-1.097 7.475-2.996 10.535-3.059 1.899-6.669 2.996-10.535 2.996-11.046 0-20-8.954-20-20 0-3.866 1.097-7.475 2.996-10.535 3.059-1.899 6.669-2.996 10.535-2.996 11.046 0 20 8.955 20 20zm-183.367-360.893c0 3.866-1.097 7.475-2.996 10.535-3.059 1.899-6.669 2.996-10.535 2.996-11.046 0-20-8.954-20-20 0-3.866 1.097-7.475 2.996-10.535 3.059-1.899 6.669-2.996 10.535-2.996 11.046 0 20 8.954 20 20zm240.825 123.704c0 3.866-1.097 7.475-2.996 10.535-3.059 1.899-6.669 2.996-10.535 2.996-11.046 0-20-8.954-20-20 0-3.866 1.097-7.475 2.996-10.535 3.059-1.899 6.669-2.996 10.535-2.996 11.045 0 20 8.954 20 20zm91.013-27.54c0 3.866-1.097 7.475-2.996 10.535-3.059 1.899-6.669 2.996-10.535 2.996-11.046 0-20-8.954-20-20 0-3.866 1.097-7.475 2.996-10.535 3.059-1.899 6.669-2.996 10.535-2.996 11.046 0 20 8.955 20 20zm-252.024 186.168c1.077-.322 1.994.849 1.409 1.809-4.401 7.228-12.366 12.047-21.454 12.016-13.675-.046-24.869-11.24-24.914-24.914-.03-9.095 4.796-17.064 12.032-21.463.955-.58 2.12.331 1.799 1.401-.724 2.412-1.093 4.977-1.048 7.635.229 13.405 11.154 24.33 24.559 24.559 2.651.045 5.21-.322 7.617-1.043z" fill="#fff36c"></path><path d="m246.961 294.972c0 4.833-1.371 9.344-3.745 13.168-3.824 2.374-8.336 3.745-13.168 3.745-13.807 0-25-11.193-25-25 0-4.832 1.371-9.344 3.745-13.168 3.824-2.375 8.336-3.746 13.168-3.746 13.807.001 25 11.194 25 25.001z" fill="#fff79f"></path><path d="m62.283 311.454c-3.962 2.482-7.31 5.83-9.792 9.792-.459.733-1.528.733-1.987 0-2.482-3.962-5.83-7.31-9.792-9.792-.733-.459-.733-1.528 0-1.987 3.962-2.482 7.31-5.83 9.792-9.792.459-.733 1.528-.733 1.987 0 2.482 3.962 5.83 7.31 9.792 9.792.733.459.733 1.527 0 1.987zm327.536-231.303c-6.294-3.943-11.612-9.261-15.555-15.555-.73-1.165-2.426-1.165-3.156 0-3.943 6.294-9.261 11.612-15.555 15.555-1.165.729-1.165 2.426 0 3.156 6.294 3.943 11.612 9.261 15.555 15.554.73 1.165 2.426 1.165 3.156 0 3.943-6.293 9.261-11.612 15.555-15.554 1.165-.729 1.165-2.426 0-3.156z" fill="#40c1fa"></path></g></svg>