<!-- icon666.com - MILLIONS vector ICONS FREE --><svg viewBox="0 0 480 480" xmlns="http://www.w3.org/2000/svg" xmlns:xlink="http://www.w3.org/1999/xlink"><linearGradient id="linear0" gradientUnits="userSpaceOnUse" x1="0" x2="480" y1="240" y2="240"><stop offset="0" stop-color="#41dfd0"></stop><stop offset="1" stop-color="#ee83ef"></stop></linearGradient><path d="m187.902344 339.496094c-2.324219 3.757812-7.257813 4.917968-11.015625 2.59375-13.042969-8.074219-24.421875-18.570313-33.519531-30.921875-2.625-3.558594-1.867188-8.566407 1.6875-11.191407 3.558593-2.625 8.570312-1.871093 11.191406 1.6875 7.882812 10.714844 17.75 19.820313 29.066406 26.816407 3.757812 2.324219 4.917969 7.257812 2.589844 11.015625zm52.097656 4.503906c-8.855469 0-17.675781-1.121094-26.246094-3.335938-4.238281-.996093-8.492187 1.574219-9.578125 5.785157-1.089843 4.214843 1.390625 8.523437 5.578125 9.703125 9.878906 2.554687 20.042969 3.847656 30.246094 3.847656 4.417969 0 8-3.582031 8-8s-3.582031-8-8-8zm0-224c-37.105469.027344-72.113281 17.207031-94.839844 46.535156-22.726562 29.332032-30.617187 67.519532-21.375 103.457032 1.101563 4.277343 5.46875 6.851562 9.746094 5.746093 4.28125-1.101562 6.851562-5.46875 5.75-9.746093-14.339844-55.601563 19.097656-112.304688 74.695312-126.664063 55.59375-14.359375 112.308594 19.050781 126.691407 74.640625 14.386719 55.589844-19.003907 112.320312-74.589844 126.726562-3.894531 1.011719-6.433594 4.757813-5.925781 8.75.503906 3.992188 3.894531 6.988282 7.917968 6.996094.679688 0 1.355469-.085937 2.007813-.265625 58.5-15.132812 96.621094-71.398437 88.988281-131.335937-7.632812-59.941406-58.644531-104.855469-119.066406-104.839844zm-217.335938 160v16h16v-16zm33.734376-232h-16v16h16zm114.601562-16h16v-16h-16zm-153.664062 88v16h16v-16zm340.664062-88v-16h-16v16zm70 72v-16h-16v16zm28 172v-16h-16v16zm9.335938-92v-16h-16v16zm-4.335938 167.238281v-16h-16v16zm-50 76.761719v-16h-16v16zm-117 20v16h16v-16zm-248.960938-8h16v-16h-16zm78.960938 0v16h16v-16zm116-112c-48.601562 0-88-39.398438-88-88s39.398438-88 88-88 88 39.398438 88 88c-.058594 48.578125-39.421875 87.941406-88 88zm72-88c0-39.765625-32.234375-72-72-72s-72 32.234375-72 72 32.234375 72 72 72c39.746094-.042969 71.957031-32.253906 72-72zm168-240c-.121094 68.027344-22.375 134.167969-63.398438 188.433594 4.902344 16.75 7.394532 34.113281 7.398438 51.566406 0 1.105469-.0625 2.191406-.078125 3.296875 20.414063-12.492187 39.246094-27.410156 56.078125-44.425781v22.199218c-17.5 16.042969-36.777344 30.03125-57.457031 41.691407-2.023438 16.503906-6.292969 32.652343-12.695313 48 24.183594-4.230469 47.746094-11.445313 70.152344-21.480469v17.429688c-25.148438 10.613281-51.582031 17.875-78.625 21.601562-8.992188 16.320312-20.390625 31.191406-33.816406 44.113281 36.824218 8.789063 74.984375 10.480469 112.441406 4.972657v16.203124c-14.347656 1.996094-28.816406 3-43.304688 3.007813-28.304687-.027344-56.472656-3.914063-83.726562-11.546875-13.15625 10.285156-27.652344 18.734375-43.089844 25.105469 49.863282 34.925781 109.242188 53.714843 170.121094 53.832031v16c-68.03125-.125-134.175781-22.378906-188.449219-63.398438-16.742187 4.902344-34.101562 7.394532-51.550781 7.398438-1.167969 0-2.328125-.0625-3.488281-.089844 3.199219 5.304688 6.558593 10.515625 10.046875 15.515625 10.296875 14.535157 21.882812 28.117188 34.617187 40.574219h-22.34375c-9.125-9.910156-17.601562-20.398438-25.375-31.398438-5.792969-8.289062-11.199219-17.074218-16.234375-26.066406-16.488281-2.027344-32.621094-6.296875-47.949218-12.695312 4.21875 24.183594 11.425781 47.75 21.445312 70.160156h-17.429688c-10.617187-25.152344-17.878906-51.589844-21.601562-78.632812-16.320312-8.984376-31.1875-20.386719-44.101562-33.816407-8.808594 36.824219-10.5 74.992188-4.984376 112.449219h-16.203124c-5.917969-42.488281-3.035157-85.738281 8.472656-127.0625-10.269532-13.152344-18.703125-27.640625-25.070313-43.066406-34.917969 49.871094-53.695312 109.25-53.800781 170.128906h-16c.121094-68.03125 22.378906-134.175781 63.40625-188.441406-4.90625-16.746094-7.402344-34.105469-7.40625-51.558594 0-1.105469.0625-2.191406.089844-3.289062-20.421875 12.507812-39.257813 27.441406-56.089844 44.472656v-22.207032c17.5-16.054687 36.78125-30.058593 57.464844-41.730468 2.042968-16.554688 6.351562-32.753906 12.800781-48.140625-23.40625 4.0625-46.234375 10.925781-68 20.4375v-17.320313c24.507813-10.128906 50.207031-17.082031 76.476563-20.695312 8.96875-16.25 20.332031-31.0625 33.707031-43.933594-18.605469-4.542969-37.613281-7.222656-56.746094-8-18.617187-.78125-37.269531.203125-55.703125 2.941406v-16.136718c18.660156-2.632813 37.523438-3.554688 56.351562-2.75 23.933594.972656 47.667969 4.761718 70.710938 11.289062 13.152344-10.273438 27.640625-18.707031 43.066406-25.074219-49.863281-34.941406-109.242187-53.738281-170.128906-53.863281v-16c68.03125.125 134.179688 22.378906 188.449219 63.40625 16.742187-4.910156 34.101562-7.40625 51.550781-7.40625 1.105469 0 2.191406.0625 3.296875.078125-12.492187-20.414063-27.410156-39.246094-44.425781-56.078125h22.191406c16.046875 17.496094 30.035156 36.773438 41.691406 57.457031 16.5 2.027344 32.652344 6.296875 48 12.695313-4.230468-24.183594-11.445312-47.746094-21.472656-70.152344h17.429688c10.617187 25.152344 17.878906 51.585938 21.601562 78.632812 16.320312 8.984376 31.191406 20.382813 44.113281 33.808594 8.796875-36.824218 10.488281-74.984375 4.972657-112.441406h16.203124c5.914063 42.488281 3.03125 85.738281-8.472656 127.0625 10.273438 13.148438 18.710938 27.632812 25.078125 43.058594 34.914063-49.867188 53.6875-109.246094 53.792969-170.121094zm-72 240c-.023438-12.148438-1.363281-24.253906-4-36.113281-5.246094 6.050781-10.679688 12-16.441406 17.714843-2.015625 2.066407-4.992188 2.886719-7.785156 2.144532-2.792969-.746094-4.96875-2.9375-5.6875-5.738282-.722657-2.796874.125-5.769531 2.210937-7.769531 7.921875-7.890625 15.402344-16.21875 22.398437-24.941406-4.75-13.894531-11.304687-27.105469-19.496093-39.296875-2.640625 7.609375-5.464844 15.097656-8.632813 22.273438-1.421875 3.542968-5.152344 5.589843-8.90625 4.878906-3.753906-.707032-6.484375-3.972656-6.515625-7.792969v-.078125c.003907-1.105469.238281-2.195312.6875-3.203125 4.453125-10.207031 8.304688-20.667969 11.527344-31.324219-10.675781-12.425781-23.105469-23.230468-36.894531-32.074218.589844 8.074218.96875 16.121093.917968 24-.023437 4.398437-3.597656 7.953124-8 7.953124h-.046874c-4.417969-.027343-7.980469-3.628906-7.953126-8.046874.019532-11.167969-.59375-22.328126-1.847656-33.425782-13.164062-6.484375-27.132812-11.199218-41.535156-14.015625 3.566406 7.375 6.894531 14.777344 9.710938 22.160157 1.578124 4.128906-.492188 8.753906-4.621094 10.328124-4.128906 1.574219-8.753906-.496093-10.328125-4.625-4.027344-10.394531-8.691407-20.535156-13.960938-30.359374-4.242187-.320313-8.480469-.648438-12.800781-.648438-12.144531.023438-24.25 1.363281-36.105469 4 6.050781 5.257812 12 10.6875 17.707031 16.441406 2.066407 2.015625 2.886719 4.992188 2.144532 7.785156-.746094 2.792969-2.9375 4.96875-5.738282 5.6875-2.796874.722657-5.769531-.125-7.769531-2.210937-7.890625-7.921875-16.214843-15.398437-24.933593-22.398437-13.894532 4.746093-27.105469 11.300781-39.289063 19.496093 7.609375 2.640625 15.097656 5.464844 22.265625 8.640625 3.535156 1.429688 5.570312 5.15625 4.859375 8.902344-.710937 3.75-3.964844 6.472656-7.78125 6.511719h-.078125c-1.117188 0-2.222656-.234375-3.242188-.6875-10.199218-4.457031-20.65625-8.304688-31.3125-11.527344-12.386718 10.65625-23.167968 23.050781-32 36.800781 8.074219-.5625 16.121094-.929687 24-.960937 4.417969 0 8 3.582031 8 8s-3.582031 8-8 8h-1.726562c-10.585938.042969-21.160156.65625-31.679688 1.839843-6.550781 13.203126-11.316406 27.21875-14.175781 41.679688 7.375-3.558594 14.785157-6.886719 22.167969-9.710938 4.128906-1.574218 8.75.5 10.324219 4.625 1.570312 4.128907-.5 8.753907-4.628907 10.324219-10.390624 4.039063-20.527343 8.699219-30.351562 13.960938-.328125 4.242187-.65625 8.488281-.65625 12.800781.019531 12.148438 1.359375 24.253906 4 36.113281 5.246094-6.058593 10.671875-12 16.433594-17.714843 3.148437-3.019532 8.140625-2.957032 11.214844.144531 3.074218 3.097656 3.09375 8.089843.046874 11.21875-7.921874 7.886719-15.402343 16.210937-22.398437 24.933593 4.753906 13.894532 11.3125 27.109376 19.503906 39.296876 2.640625-7.609376 5.464844-15.089844 8.632813-22.265626 1.421875-3.542968 5.152344-5.589843 8.90625-4.878906 3.753906.707032 6.484375 3.972656 6.515625 7.792969v.078125c-.003907 1.105469-.238281 2.195312-.6875 3.203125-4.457031 10.203125-8.304688 20.664063-11.527344 31.324219 10.699219 12.4375 23.152344 23.25 36.960937 32.105468-.59375-8.070312-.96875-16.121093-.921874-24 .027343-4.398437 3.601562-7.953124 8-7.953124h.046874c4.417969.027343 7.980469 3.632812 7.953126 8.050781-.023438 11.167969.59375 22.324219 1.847656 33.421875 13.148437 6.46875 27.09375 11.171875 41.472656 13.984375-3.566406-7.375-6.894531-14.777344-9.710938-22.160157-1.578124-4.128906.492188-8.753906 4.621094-10.328124 4.128906-1.574219 8.753906.496093 10.328125 4.625 4.03125 10.394531 8.695313 20.535156 13.960938 30.359374 4.25.320313 8.496093.648438 12.800781.648438 12.144531-.023438 24.25-1.363281 36.105469-4-6.050781-5.246094-12-10.679688-17.707031-16.441406-3.019532-3.148438-2.957032-8.140625.144531-11.214844 3.097656-3.074219 8.089843-3.09375 11.21875-.046875 7.890625 7.917969 16.21875 15.394531 24.933593 22.398437 13.894532-4.75 27.105469-11.304687 39.296876-19.496093-7.617188-2.640625-15.105469-5.464844-22.273438-8.640625-3.535156-1.429688-5.570312-5.15625-4.859375-8.902344.710937-3.75 3.964844-6.472656 7.78125-6.511719h.078125c1.105469.003907 2.195312.238281 3.203125.6875 10.203125 4.457031 20.660156 8.304688 31.316406 11.527344 12.417969-10.675781 23.214844-23.09375 32.066407-36.871094-7.464844.542969-14.90625.902344-22.265626.902344h-1.765624c-4.417969-.011719-7.992188-3.605469-7.976563-8.023437.011719-4.417969 3.605469-7.988282 8.023437-7.976563h1.71875c10.609376-.042969 21.210938-.664063 31.753907-1.855469 6.503906-13.164062 11.234375-27.128906 14.070312-41.535156-7.382812 3.566406-14.785156 6.894531-22.175781 9.71875-.910156.347656-1.875.523438-2.847656.519531-3.855469-.003906-7.160156-2.757812-7.859375-6.550781-.695313-3.792969 1.410156-7.542969 5.011719-8.917969 10.394531-4.039062 20.53125-8.703125 30.359374-13.96875.328126-4.234375.648438-8.472656.648438-12.800781zm0 0" fill="url(#linear0)"></path></svg>