<!-- icon666.com - MILLIONS vector ICONS FREE --><svg id="Layer_1" enable-background="new 0 0 496.009 496.009" viewBox="0 0 496.009 496.009" xmlns="http://www.w3.org/2000/svg"><path d="m376.136 294.423c-1.865 5.061-1.1 10.708 2.077 15.066 93.165 127.803 56.368 168.512-73.708 73.708-4.359-3.177-10.005-3.941-15.066-2.076-51.956 19.148-112.599 7.855-154.325-33.862-41.717-41.727-53.01-102.37-33.862-154.326 1.865-5.06 1.101-10.706-2.075-15.065-93.225-127.928-56.25-168.443 73.705-73.71 4.36 3.178 10.007 3.942 15.069 2.076 51.955-19.155 112.597-7.862 154.323 33.864 41.718 41.718 53.011 102.361 33.862 154.325z" fill="#ffe773"></path><ellipse cx="238.694" cy="243.674" fill="#2c2c33" rx="76.083" ry="76.079"></ellipse><path d="m216.466 170.835c33.347-10.105 54.64 35.494 25.601 54.753-8.481 5.624-15.839 12.983-21.466 21.467-19.257 29.036-64.854 7.747-54.753-25.598 7.262-23.977 26.595-43.343 50.618-50.622z" fill="#42434d"></path><g fill="#fada86"><path d="m34.635 356.876c-8.755-16.117-15.369-33.344-19.658-51.2-2.064-8.592 3.229-17.231 11.82-19.295 8.594-2.065 17.23 3.229 19.295 11.82 3.636 15.138 9.242 29.74 16.663 43.401 4.217 7.765 1.342 17.479-6.423 21.697-7.762 4.215-17.477 1.346-21.697-6.423z"></path><path d="m24.663 264.015c-8.829-.36-15.695-7.809-15.335-16.638.162-3.968.447-7.996.847-11.972.885-8.792 8.725-15.2 17.523-14.316 8.792.885 15.202 8.731 14.316 17.523-.337 3.345-.577 6.732-.712 10.067-.358 8.777-7.745 15.688-16.639 15.336z"></path><path d="m134.979 480.104c-8.177-3.35-12.09-12.694-8.74-20.871 3.349-8.177 12.694-12.091 20.871-8.74 25.145 10.301 52.846 14.855 80.11 13.176 8.825-.535 16.411 6.166 16.954 14.985s-6.166 16.41-14.985 16.954c-32.026 1.973-64.595-3.372-94.21-15.504z"></path><path d="m271.832 472.685c-3.174-8.247.939-17.505 9.187-20.679 2.501-.962 5.071-2.016 7.642-3.133 8.105-3.52 17.528.195 21.05 8.3 3.521 8.104-.194 17.529-8.3 21.05-2.983 1.296-5.978 2.524-8.899 3.648-8.251 3.174-17.508-.94-20.68-9.186z"></path><path d="m313.295 45.93c-43.615-16.261-89.075-17.95-129.805-6.827-8.527 2.328-17.323-2.696-19.65-11.219-2.328-8.524 2.695-17.322 11.219-19.65 47.081-12.859 99.412-10.929 149.415 7.713 8.279 3.087 12.489 12.301 9.402 20.581-3.083 8.271-12.292 12.493-20.581 9.402z"></path></g><circle cx="455.694" cy="123.019" fill="#42434d" r="31"></circle><path d="m296.025 108.84c11.522 4.888 7.081 22.092-5.392 21.053-52.826-4.403-84.518 31.644-126.628 13.126-22.833-10.042-22.593-24.694-49-43.5-18.217-12.992-37.919-20.053-56.66-23.666-20.904-4.03-14.255-65.579 114.54 28.306 4.36 3.18 10.01 3.94 15.07 2.08 35.369-13.045 74.094-11.813 108.07 2.601z" fill="#ffec8f"></path></svg>