<!-- icon666.com - MILLIONS vector ICONS FREE --><svg id="Layer_1" enable-background="new 0 0 512 512" viewBox="0 0 512 512" xmlns="http://www.w3.org/2000/svg"><g><path d="m111.735 302.611c-5.857-5.858-15.355-5.858-21.213 0l-11.937 11.937-11.937-11.937c-5.857-5.858-15.355-5.858-21.213 0s-5.858 15.355 0 21.213l11.937 11.937-11.937 11.937c-5.858 5.858-5.858 15.355 0 21.213 5.857 5.858 15.356 5.858 21.213 0l11.937-11.937 11.937 11.937c5.857 5.858 15.356 5.858 21.213 0 5.858-5.858 5.858-15.355 0-21.213l-11.937-11.937 11.937-11.937c5.858-5.858 5.858-15.355 0-21.213z"></path><path d="m392.82 123.751c5.857 5.858 15.356 5.858 21.213 0l9.009-9.009 9.009 9.009c5.857 5.858 15.356 5.858 21.213 0 5.858-5.858 5.858-15.355 0-21.213l-9.009-9.009 9.009-9.009c5.858-5.858 5.858-15.355 0-21.213-5.857-5.858-15.355-5.858-21.213 0l-9.009 9.009-9.009-9.009c-5.857-5.858-15.355-5.858-21.213 0s-5.858 15.355 0 21.213l9.009 9.009-9.009 9.009c-5.859 5.858-5.859 15.355 0 21.213z"></path><path d="m160.239 403.818c-5.832 5.832-5.832 15.287 0 21.119 14.51 13.474 34.592-6.615 21.119-21.119-5.832-5.831-15.288-5.831-21.119 0z"></path><path d="m192.47 486.401c-5.832 5.832-5.832 15.287 0 21.119 14.51 13.474 34.592-6.615 21.119-21.119-5.832-5.832-15.287-5.832-21.119 0z"></path><path d="m45.482 456.534c-5.832 5.832-5.832 15.287 0 21.119 14.51 13.474 34.592-6.615 21.119-21.119-5.832-5.832-15.287-5.832-21.119 0z"></path><path d="m353.566 25.526c5.832-5.832 5.832-15.287 0-21.119s-15.287-5.832-21.119 0c-13.475 14.51 6.616 34.591 21.119 21.119z"></path><path d="m323.699 144.054c5.832-5.832 5.832-15.287 0-21.119s-15.287-5.832-21.119 0c-13.475 14.51 6.616 34.591 21.119 21.119z"></path><path d="m471.099 381.889 8.024-90.421c19.028-5.938 32.877-23.722 32.877-44.679-1.04-53.105-73.548-64.408-91.105-15h-120.473c-6.366-19.561-25.874-33.518-47.412-32.012l-28.891-77.206c33.103-27.564 13.514-82.579-30.084-82.595-20.554 0-38.044 13.328-44.311 31.792h-58.62c-17.57-49.419-90.068-38.092-91.104 15.001 1.041 53.1 73.544 64.411 91.104 14.999h58.619c6.411 19.125 25.276 32.795 46.456 31.738l29.084 77.721c-29.697 25.399-15.57 75.171 22.958 81.37l17.873 91.835c-41.095 23.574-24.836 87.075 23.188 87.41 20.554 0 38.043-13.329 44.311-31.792h75.128c6.268 18.464 23.757 31.792 44.312 31.792 51.28-.839 64.488-69.878 18.066-89.953zm-175.56-3.201-17.685-90.867c10.378-5.506 18.443-14.802 22.348-26.033h120.694c4.539 13.372 14.959 24.053 28.176 28.923l-7.904 89.073c-15.222 3.993-27.43 15.482-32.448 30.265h-75.128c-5.62-16.556-20.265-28.971-38.053-31.361z"></path></g></svg>