<!-- icon666.com - MILLIONS vector ICONS FREE --><svg id="Capa_1" enable-background="new 0 0 512 512" viewBox="0 0 512 512" xmlns="http://www.w3.org/2000/svg"><g><g><path d="m496.554 193.457-12.018-4.009-10.5-32.948 1.672-16.667c-7.384-13.936-16.052-27.083-25.852-39.288l-22.82-1.623-164.942-76.637-25.284 11.382-77.774 51.777-56.5 116.556v91l35 96.5 56.842 68.5 80.825 37.333 26.51 4.954c115.403-21.462 202.783-122.663 202.783-244.287 0-21.603-2.761-42.56-7.942-62.543z" fill="#60b9fe"></path><path d="m109.8 255.845c0-104.698 63.961-194.447 154.936-232.333l-12.199-5.668-15.725-9.614c-17.91 1.367-35.281 4.65-51.927 9.613l-16.147 25.157-135.202 146.448 106.334 273.885 18.655 21.313c29.929 12.775 62.873 19.854 97.471 19.854 15.619 0 30.896-1.456 45.716-4.212-110.138-26.792-191.912-126.059-191.912-244.443z" fill="#1ca8ff"></path><path d="m130.496 271.782c-6.001-12.717-16.67-19.13-27.96-24.06v45.278l35 96.5 12.065 14.54c3.299-13.781 12.358-30.523 26.228-58.94 27.334-56-28.666-38-45.333-73.318z" fill="#bced6b"></path><path d="m152.17 395.602c-26.757-39.975-42.37-88.04-42.37-139.756 0-1.538.031-3.069.058-4.6-21.612-11.617-49.257-13.085-50.695-42.811-2-41.333 46.667-22.667 48.667-66.667s33.334-42 61.334-65.333c19.66-16.384 18.285-43.744 15.722-58.59-102.588 30.586-177.39 125.627-177.39 238.155 0 102.644 62.237 190.745 151.029 228.646 6.662-11.03 6.923-25.584-1.362-40.879-10.248-18.919-11.406-30.383-4.993-48.165z" fill="#a2e82d"></path><path d="m475.708 139.833c-14.573 4.236-29.413 6.938-37.879 3.934-16.962-6.019-20.442-27.306 12.027-43.222-36.621-45.609-89.002-78.01-148.879-88.963h-15.107l-39.11 17.606c2.477 2.138 5.515 4.187 9.237 6.079 30.5 15.5 49.5 25.5 38 44s1 30 18 28 45-32.5 62.5-17 24.5 44 10.5 49.5-79.5-19.5-96 22-13 80.966 31.5 94.233 61.5-2.233 65.5 29.267-19 42-16 70.5 5.5 64 30 45 64.5-87 66.5-123.667c1.709-31.341-3.392-66.574 30.058-83.643-4.885-18.838-11.933-36.8-20.847-53.624z" fill="#bced6b"></path><path d="m248.79 30.823c16.448-8.246 33.925-14.739 52.187-19.24-14.59-2.669-29.619-4.083-44.981-4.083-6.455 0-12.853.247-19.184.73-.066 7.006 2.448 15.429 11.978 22.593z" fill="#a2e82d"></path><path d="m213.122 113.494-5.087-1.16-16.167 7.167s-18 31.167-18.167 31.667-1.5 13.167-1.5 13.167l3.908 3.509c10.364.49 20.113-2.706 24.275-15.006 2.286-6.755 5.661-11.328 9.367-14.406 7.6-6.314 8.988-17.216 3.371-24.938z" fill="#bced6b"></path><path d="m176.336 158.464c3.036-4.596 6.547-11.464 9.912-21.636 4.99-15.081 17.317-21.014 26.875-23.335-.5-.688-1.036-1.36-1.649-1.993-4.336-4.473-10.649-6.417-16.752-5.169-9.75 1.993-23.4 7.677-28.718 23.747-3.365 10.172-6.876 17.04-9.912 21.636-3.298 4.994-.796 11.748 4.956 13.399 4.781 1.372 9.995 2.488 15.063 2.728-1.634-2.778-1.749-6.389.225-9.377z" fill="#a2e82d"></path></g><g><path d="m193.224 98.983c-17.171 3.51-29.365 13.716-34.336 28.74-2.708 8.184-5.753 14.865-9.05 19.857-6.094 9.224-1.492 21.69 9.145 24.742 7.442 2.136 13.8 3.061 19.235 3.061 18.075 0 25.922-10.231 29.276-20.144 1.617-4.781 3.99-8.495 7.055-11.04 5.637-4.683 9.094-11.522 9.483-18.763.388-7.184-2.159-13.987-7.17-19.156-6.145-6.338-14.983-9.066-23.638-7.297zm12.869 17.738c2.069 2.135 3.121 4.943 2.962 7.908-.167 3.083-1.658 6.01-4.091 8.032-5.229 4.344-9.159 10.323-11.679 17.771-1.489 4.4-4.974 14.703-30.165 7.473-.895-.257-1.275-1.287-.766-2.057 4.026-6.097 7.65-13.974 10.773-23.413 3.305-9.987 11.076-16.297 23.1-18.755.727-.148 1.455-.221 2.178-.221 2.873-.001 5.64 1.15 7.688 3.262z"></path><path d="m256 0c-140.794 0-256 113.883-256 256 0 140.646 113.639 256 256 256 66.113 0 128.859-25.124 176.68-70.743 2.997-2.859 3.109-7.606.25-10.604-2.858-2.997-7.606-3.108-10.604-.25-45.017 42.946-104.087 66.597-166.326 66.597-30.799 0-60.263-5.816-87.363-16.394 4.23-12.335 2.59-26.627-4.875-40.412-9.761-18.019-10.421-27.379-3.212-45.524 1.529-3.85-.351-8.21-4.2-9.74-3.852-1.53-8.211.351-9.739 4.201-8.831 22.225-7.868 36.369 3.962 58.207 5.258 9.708 6.684 19.19 4.232 27.354-82.718-38.429-139.805-122.166-139.805-218.692 0-100.768 64.788-194.643 163.583-228.245 1.056 13.517-.652 31.612-14.218 42.917-7.961 6.635-16.311 11.124-24.384 15.465-19.571 10.524-38.058 20.464-39.641 55.289-.803 17.663-10.071 22.233-21.807 28.021-12.516 6.172-28.092 13.853-26.858 39.349 1.319 27.275 21.3 35.175 38.928 42.146 13.763 5.442 26.763 10.582 33.114 24.041 7.651 16.214 22.115 22.816 33.736 28.121 9.67 4.414 15.692 7.385 17.575 12.637 1.908 5.32-.09 14.092-5.937 26.07-2.441 5.003-4.732 9.639-6.869 13.963l-.543 1.099c-1.835 3.713-.312 8.211 3.401 10.046 3.713 1.834 8.211.312 10.046-3.402l.543-1.098c2.147-4.345 4.449-9.003 6.902-14.03 7.904-16.195 9.994-28.178 6.576-37.712-4.114-11.474-14.969-16.429-25.467-21.22-10.369-4.733-21.091-9.627-26.4-20.876-8.883-18.825-26.032-25.606-41.163-31.589-18.271-7.225-28.648-12.13-29.461-28.921-.758-15.669 6.907-19.45 18.511-25.171 12.898-6.361 28.951-14.277 30.156-40.792 1.196-26.324 13.355-32.862 31.76-42.759 8.323-4.476 17.758-9.549 26.884-17.153 19.739-16.449 21.126-41.794 19.26-58.886 11.989-3.237 24.341-5.576 36.986-6.927 2.013 8.563 7.894 18.206 22.388 25.571 17.956 9.125 34.917 17.745 37.065 25.439.383 1.374.59 3.689-2.038 7.916-8.847 14.233-5.264 24.08-2.34 28.683 5.093 8.019 15.668 12.128 27.586 10.726 7.607-.895 15.714-5.607 24.297-10.596 14.726-8.561 25.668-14.162 32.354-8.239 10.883 9.639 16.648 24.835 15.206 32.982-.562 3.171-1.903 3.698-2.474 3.922-2.381.892-11.938-.195-18.916-.99-25.226-2.872-67.444-7.679-81.313 27.201-11.464 28.834-12.686 54.055-3.534 72.938 7.282 15.024 20.693 25.54 39.861 31.254 16.447 4.903 29.475 6.065 38.986 6.914 7.368.657 13.188 1.176 16.129 3.083 1.741 1.129 3.894 3.631 5.087 13.027 1.788 14.083-2.487 22.944-7.438 33.205-4.807 9.96-10.253 21.249-8.581 37.135 2.631 25.248 4.506 49.581 18.962 55.762 7.99 3.416 16.224-.293 23.094-5.62 26.891-20.854 67.319-91.187 69.393-129.185.264-4.837.369-9.789.473-14.577.504-23.52.956-44.243 17.197-57.437 3.491 16.291 5.343 33.184 5.343 50.503 0 54.783-17.917 106.411-51.814 149.302-2.567 3.25-2.016 7.966 1.234 10.535 3.249 2.568 7.967 2.016 10.534-1.234 36.012-45.567 55.046-100.411 55.046-158.603 0-141.539-114.47-256-256-256zm208.392 135.068c-14.768 3.461-21.322 2.599-24.051 1.631-4.591-1.629-7.454-4.724-7.658-8.279-.263-4.561 3.692-11.468 15.07-18.226 6.039 7.923 11.601 16.226 16.639 24.874zm-46.685-5.789c.554 9.636 7.305 17.896 17.618 21.556 7.965 2.826 19.921 2.131 36.425-2.135 6.535 13.087 11.926 26.84 16.014 41.14-27.103 17.162-27.739 46.61-28.3 72.771-.1 4.667-.203 9.492-.454 14.082-1.817 33.317-40.04 99.872-63.606 118.148-4.662 3.616-7.224 4.016-8.004 3.682-.309-.132-3.079-1.585-5.575-11.961-2.117-8.801-3.18-20.168-4.366-31.579-1.226-11.642 2.666-19.708 7.172-29.046 5.23-10.838 11.157-23.123 8.81-41.613-3.348-26.359-17.212-27.596-34.765-29.162-9.371-.835-21.034-1.876-36.033-6.348-14.967-4.462-25.278-12.342-30.648-23.421-9.181-18.942-2.905-43.547 3.976-60.854 6.161-15.498 21.131-19.698 39.572-19.698 8.174 0 17.033.826 26.104 1.859 11.801 1.344 20.328 2.315 26.096.048 6.277-2.466 10.454-7.889 11.761-15.269 2.538-14.333-6.073-34.464-20.03-46.826-15.318-13.568-34.46-2.441-49.838 6.499-6.881 4-13.996 8.136-18.511 8.667-6.063.714-11.226-.807-13.172-3.871-1.764-2.776-.882-7.413 2.417-12.721 4.255-6.845 5.516-13.529 3.746-19.868-3.921-14.045-21.924-23.194-44.718-34.778-7.244-3.682-11.832-8.083-13.864-13.339 1.789-.077 4.089-.153 4.712-.168 1.913-.046 3.83-.074 5.754-.074 70.753 0 136.679 30.834 182.234 83.458-13.783 8.767-21.166 19.704-20.527 30.821z"></path></g></g></svg>