<!-- icon666.com - MILLIONS vector ICONS FREE --><svg id="Layer_1" viewBox="0 0 64 64" xmlns="http://www.w3.org/2000/svg"><g><g fill="#8ccaf4"><circle cx="56.5" cy="50.5" r="2.5"></circle><circle cx="10.5" cy="53.5" r="2.5"></circle><circle cx="7.5" cy="13.5" r="2.5"></circle><circle cx="52.5" cy="10.5" r="2.5"></circle></g><path d="m63 44s-3.31-5.74-10.63-6.81c-3.46 17.46-19.58 25.81-32.37 25.81 0 0 5.74-3.31 6.81-10.63-17.46-3.46-25.81-19.58-25.81-32.37 0 0 3.31 5.74 10.63 6.81 3.46-17.46 19.58-25.81 32.37-25.81 0 0-5.74 3.31-6.81 10.63 17.46 3.46 25.81 19.58 25.81 32.37zm-16-12c0-8.28-6.72-15-15-15s-15 6.72-15 15 6.72 15 15 15 15-6.72 15-15z" fill="#519be5"></path><path d="m32 17c8.28 0 15 6.72 15 15s-6.72 15-15 15-15-6.72-15-15 6.72-15 15-15zm9 15c0-4.97-4.03-9-9-9s-9 4.03-9 9 4.03 9 9 9 9-4.03 9-9z" fill="#8ccaf4"></path><path d="m32 23c4.97 0 9 4.03 9 9s-4.03 9-9 9-9-4.03-9-9 4.03-9 9-9zm4 9c0-2.21-1.79-4-4-4s-4 1.79-4 4 1.79 4 4 4 4-1.79 4-4z" fill="#2368cc"></path><circle cx="32" cy="32" fill="#519be5" r="4"></circle></g><g fill="#0b4177"><circle cx="14.5" cy="6.5" r="1.5"></circle><circle cx="49.5" cy="57.5" r="1.5"></circle><path d="m38.345 10.854c1.301-6.091 6.106-8.959 6.155-8.987.392-.226.583-.688.466-1.125s-.513-.741-.966-.741c-13.694-.001-29.3 8.807-33.146 25.654-6.092-1.301-8.959-6.106-8.987-6.155-.226-.392-.688-.582-1.125-.466-.438.117-.742.513-.742.966 0 13.694 8.808 29.3 25.655 33.146-1.301 6.091-6.106 8.959-6.155 8.987-.392.226-.583.688-.466 1.125s.513.741.966.741c13.694 0 29.3-8.808 33.146-25.655 6.092 1.301 8.959 6.106 8.988 6.157.226.391.688.582 1.124.464.438-.117.741-.513.741-.966 0-13.694-8.808-29.3-25.655-33.146zm14.17 25.347c-.528-.081-1.021.272-1.125.795-3.005 15.161-16.029 23.646-28.352 24.854 1.838-1.805 4.107-4.86 4.761-9.335.077-.527-.272-1.022-.795-1.125-15.161-3.005-23.646-16.03-24.854-28.352 1.805 1.838 4.859 4.107 9.335 4.761.526.076 1.021-.272 1.125-.795 3.005-15.161 16.03-23.646 28.352-24.854-1.838 1.805-4.107 4.86-4.761 9.335-.077.527.272 1.022.795 1.125 15.161 3.004 23.646 16.029 24.854 28.351-1.805-1.838-4.859-4.107-9.335-4.761z"></path><path d="m7.5 17c1.93 0 3.5-1.57 3.5-3.5s-1.57-3.5-3.5-3.5-3.5 1.57-3.5 3.5 1.57 3.5 3.5 3.5zm0-5c.827 0 1.5.673 1.5 1.5s-.673 1.5-1.5 1.5-1.5-.673-1.5-1.5.673-1.5 1.5-1.5z"></path><path d="m10.5 50c-1.93 0-3.5 1.57-3.5 3.5s1.57 3.5 3.5 3.5 3.5-1.57 3.5-3.5-1.57-3.5-3.5-3.5zm0 5c-.827 0-1.5-.673-1.5-1.5s.673-1.5 1.5-1.5 1.5.673 1.5 1.5-.673 1.5-1.5 1.5z"></path><path d="m56.5 47c-1.93 0-3.5 1.57-3.5 3.5s1.57 3.5 3.5 3.5 3.5-1.57 3.5-3.5-1.57-3.5-3.5-3.5zm0 5c-.827 0-1.5-.673-1.5-1.5s.673-1.5 1.5-1.5 1.5.673 1.5 1.5-.673 1.5-1.5 1.5z"></path><path d="m52.5 14c1.93 0 3.5-1.57 3.5-3.5s-1.57-3.5-3.5-3.5-3.5 1.57-3.5 3.5 1.57 3.5 3.5 3.5zm0-5c.827 0 1.5.673 1.5 1.5s-.673 1.5-1.5 1.5-1.5-.673-1.5-1.5.673-1.5 1.5-1.5z"></path><path d="m32 22c-3.033 0-5.868 1.354-7.777 3.715-.348.43-.281 1.059.148 1.406.431.349 1.06.28 1.406-.148 1.528-1.889 3.796-2.973 6.223-2.973 4.411 0 8 3.589 8 8s-3.589 8-8 8-8-3.589-8-8c0-.552-.447-1-1-1s-1 .448-1 1c0 5.514 4.486 10 10 10s10-4.486 10-10-4.486-10-10-10z"></path><path d="m32 29c1.654 0 3 1.346 3 3 0 .552.447 1 1 1s1-.448 1-1c0-2.757-2.243-5-5-5s-5 2.243-5 5 2.243 5 5 5c.553 0 1-.448 1-1s-.447-1-1-1c-1.654 0-3-1.346-3-3s1.346-3 3-3z"></path><path d="m32 48c4.29 0 8.182-1.706 11.058-4.464-1.559 3.132-3.942 6.296-7.595 8.62-.466.296-.604.915-.307 1.381.404.631 1.214.413 1.381.307 9.127-5.808 11.12-15.417 11.463-21.844 0-4.29-1.706-8.182-4.464-11.058 3.132 1.559 6.296 3.942 8.62 7.595.19.299.816.583 1.381.307.496-.243.604-.915.307-1.381-5.807-9.125-16.36-11.463-21.844-11.463-4.191 0-8.003 1.629-10.859 4.275 1.597-2.983 3.945-6.013 7.396-8.431.452-.317.604-.915.307-1.381-.296-.465-.912-.604-1.381-.307-11.333 7.212-11.463 21.25-11.463 21.844 0 4.29 1.706 8.182 4.464 11.058-3.132-1.559-6.296-3.942-8.62-7.595-.296-.465-.912-.604-1.381-.307-.466.296-.604.915-.307 1.381 5.807 9.125 15.018 11.463 21.844 11.463zm14-16c-.152 7.992-6.886 14-14 14-7.984-.082-14-6.889-14-14 0-7.72 6.28-14 14-14 6.934 0 13.999 6.889 14 14z"></path></g></svg>