<!-- icon666.com - MILLIONS vector ICONS FREE --><svg id="flat_copy" viewBox="0 0 512 512" xmlns="http://www.w3.org/2000/svg" data-name="flat copy"><circle cx="384" cy="64" fill="#1565c0" r="24"></circle><circle cx="176" cy="464" fill="#43a047" r="24"></circle><circle cx="440" cy="440" fill="#bbdefb" r="24"></circle><circle cx="96" cy="256" fill="#e65100" r="24"></circle><g fill="#5e92f3"><path d="m352 501.322a8 8 0 0 1 -3.011-15.415 247.71 247.71 0 0 0 65.536-39.343 8 8 0 1 1 10.244 12.291 263.72 263.72 0 0 1 -69.764 41.878 7.977 7.977 0 0 1 -3.005.589z"></path><path d="m452.706 427.65a8 8 0 0 1 -6.142-13.122 247.71 247.71 0 0 0 39.343-65.536 8 8 0 1 1 14.826 6.016 263.72 263.72 0 0 1 -41.878 69.764 7.979 7.979 0 0 1 -6.149 2.878z"></path><path d="m493.326 168a8 8 0 0 1 -7.415-4.992 250.627 250.627 0 0 0 -59.417-86.944 8 8 0 1 1 11.006-11.611 266.736 266.736 0 0 1 63.233 92.535 8 8 0 0 1 -7.407 11.012z"></path><path d="m18.674 168a8.005 8.005 0 0 1 -7.409-11.011 265.54 265.54 0 0 1 133.154-140.235 8 8 0 1 1 6.785 14.49 249.537 249.537 0 0 0 -125.115 131.765 8 8 0 0 1 -7.415 4.991z"></path><path d="m118.715 480a7.963 7.963 0 0 1 -4.294-1.256 266.585 266.585 0 0 1 -105.921-130.83 8 8 0 0 1 15-5.586 250.49 250.49 0 0 0 99.528 122.927 8 8 0 0 1 -4.313 14.745z"></path><path d="m427.446 408a8 8 0 0 1 -6.117-13.15 215.683 215.683 0 0 0 -28.023-305.482 8 8 0 1 1 10.194-12.336 231.68 231.68 0 0 1 30.071 328.118 7.98 7.98 0 0 1 -6.125 2.85z"></path><path d="m153.663 463.232a7.977 7.977 0 0 1 -3.66-.891 232.244 232.244 0 0 1 -126.003-206.341c0-127.925 104.075-232 232-232a232.149 232.149 0 0 1 108.5 26.965 8 8 0 0 1 -7.5 14.135 216.1 216.1 0 0 0 -101-25.1c-119.1 0-216 96.9-216 216a215.128 215.128 0 0 0 32.553 113.923 217.387 217.387 0 0 0 84.784 78.2 8 8 0 0 1 -3.674 15.112z"></path><path d="m256 488a231.82 231.82 0 0 1 -59.617-7.77 8 8 0 1 1 4.115-15.46 215.92 215.92 0 0 0 171.2-26.447 8 8 0 0 1 8.6 13.494 230.959 230.959 0 0 1 -124.298 36.183z"></path><path d="m66.677 232a8 8 0 0 1 -7.9-9.33 199.971 199.971 0 0 1 288.9-144.395 8 8 0 1 1 -7.358 14.207 181.605 181.605 0 0 0 -84.319-20.482 184.312 184.312 0 0 0 -181.444 153.329 8 8 0 0 1 -7.879 6.671z"></path><path d="m159.992 430.234a7.96 7.96 0 0 1 -4-1.08 199.638 199.638 0 0 1 -97.21-139.826 8 8 0 0 1 15.778-2.658 183.682 183.682 0 0 0 89.458 128.642 8 8 0 0 1 -4.021 14.922z"></path><path d="m256 456a8 8 0 0 1 0-16c101.458 0 184-82.542 184-184a184.153 184.153 0 0 0 -62.427-138 8 8 0 0 1 10.584-12 200.161 200.161 0 0 1 67.843 150c0 110.28-89.72 200-200 200z"></path><path d="m256 424a168.017 168.017 0 0 1 -166.132-142.885 8 8 0 0 1 15.824-2.371 152.015 152.015 0 0 0 150.308 129.256c83.813 0 152-68.187 152-152s-68.187-152-152-152a152.015 152.015 0 0 0 -150.308 129.256 8 8 0 0 1 -15.824-2.371 168.017 168.017 0 0 1 166.132-142.885c92.636 0 168 75.364 168 168s-75.364 168-168 168z"></path></g><path d="m464 432h24v16h-24z" fill="#003c8f"></path><path d="m392 432h24v16h-24z" fill="#003c8f"></path><path d="m116 265.578h16v28.844h-16z" fill="#8e0000" transform="matrix(.555 -.832 .832 .555 -177.757 227.858)"></path><path d="m52 225.578h16v28.844h-16z" fill="#8e0000" transform="matrix(.555 -.832 .832 .555 -172.974 156.795)"></path><path d="m176 216.955a31.9 31.9 0 0 1 -22.627-9.356l11.313-11.315a16 16 0 1 0 22.627-22.628l11.315-11.312a31.984 31.984 0 0 1 -22.628 54.611z" fill="#ffb04c"></path><path d="m151.944 255.992a31.8 31.8 0 0 1 -13.756-3.13l6.9-14.433a16 16 0 1 0 13.8-28.869l6.905-14.434a32 32 0 0 1 -13.858 60.866z" fill="#ffb04c"></path><path d="m152 304v-16a16 16 0 0 0 0-32v-16a32 32 0 0 1 0 64z" fill="#ffb04c"></path><circle cx="256" cy="256" fill="#f57f17" r="80"></circle><path d="m256 328a72 72 0 0 1 0-144 4 4 0 0 1 0 8 64 64 0 0 0 0 128 4 4 0 0 1 0 8z" fill="#ffc483"></path><path d="m256 328a4 4 0 0 1 0-8 64 64 0 0 0 0-128 4 4 0 0 1 0-8 72 72 0 0 1 0 144z" fill="#bc5100"></path><path d="m352 240a32 32 0 0 1 0-64v16a16 16 0 0 0 0 32z" fill="#ffb04c"></path><path d="m324.686 318.628a24 24 0 0 1 33.942-33.942l-11.315 11.314a8 8 0 1 0 -11.313 11.313z" fill="#ffb04c"></path><path d="m360 288a32 32 0 0 1 0-64h16v16h-16a16 16 0 0 0 0 32z" fill="#ffb04c"></path><path d="m300.572 358.628a32 32 0 0 1 45.255-45.256l.343.342 7.327 9.351-12.594 9.87-6.7-8.552a16 16 0 0 0 -22.315 22.93z" fill="#ffb04c"></path><path d="m320 200a40 40 0 0 1 -28.283-68.284l11.312 11.314a24 24 0 0 0 33.941 33.941l11.314 11.312a39.734 39.734 0 0 1 -28.284 11.717z" fill="#ffb04c"></path><path d="m264 184a32.036 32.036 0 0 1 -32-32h16a16 16 0 0 0 32 0h16a32.036 32.036 0 0 1 -32 32z" fill="#ffb04c"></path><path d="m216 192a32.036 32.036 0 0 1 -32-32h16a16 16 0 0 0 32 0h16a32.036 32.036 0 0 1 -32 32z" fill="#ffb04c"></path><path d="m244.676 366.2-14.34-7.1a16 16 0 0 0 -28.683-14.192l-14.34-7.1a32 32 0 1 1 57.363 28.392z" fill="#ffb04c"></path><path d="m296.2 381.275-12.03-10.548a15.444 15.444 0 0 0 3.83-10.187 16.88 16.88 0 0 0 -5.055-11.963 15.5 15.5 0 0 0 -11.257-4.577 16.075 16.075 0 0 0 -15.688 16h-16a32.158 32.158 0 0 1 31.385-31.994 31.564 31.564 0 0 1 22.765 9.15 32.972 32.972 0 0 1 9.85 23.384 31.44 31.44 0 0 1 -7.8 20.735z" fill="#ffb04c"></path><path d="m184.224 355.483-10.666-11.925 11.671-10.438a16 16 0 1 0 -20.969-24.175l-10.52-12.054a32 32 0 1 1 42.082 48.219z" fill="#ffb04c"></path><path d="m256 344a88 88 0 1 1 88-88 88.1 88.1 0 0 1 -88 88zm0-160a72 72 0 1 0 72 72 72.081 72.081 0 0 0 -72-72z" fill="#ffb04c"></path><path d="m96 288a32 32 0 1 1 32-32 32.036 32.036 0 0 1 -32 32zm0-48a16 16 0 1 0 16 16 16.019 16.019 0 0 0 -16-16z" fill="#8e0000"></path><path d="m384 96a32 32 0 1 1 32-32 32.036 32.036 0 0 1 -32 32zm0-48a16 16 0 1 0 16 16 16.019 16.019 0 0 0 -16-16z" fill="#5e92f3"></path><path d="m440 472a32 32 0 1 1 32-32 32.036 32.036 0 0 1 -32 32zm0-48a16 16 0 1 0 16 16 16.019 16.019 0 0 0 -16-16z" fill="#003c8f"></path><path d="m176 496a32 32 0 1 1 32-32 32.036 32.036 0 0 1 -32 32zm0-48a16 16 0 1 0 16 16 16.019 16.019 0 0 0 -16-16z" fill="#2f6d28"></path></svg>