<!-- icon666.com - MILLIONS vector ICONS FREE --><svg clip-rule="evenodd" fill-rule="evenodd" image-rendering="optimizeQuality" shape-rendering="geometricPrecision" text-rendering="geometricPrecision" viewBox="0 0 1.70666 1.70666" xmlns="http://www.w3.org/2000/svg"><g id="Layer_x0020_1"><path d="m.361602 1.17321c0 .0511142.0415787.0926772.0926772.0926772.0237953 0 .0455236-.00901181.0619764-.0237717.00640551-.0058189.0120236-.0124921.0166378-.0198622.00009055-.00014567.0001811-.00029134.00027165-.00043701.00891339-.0144843.0137795-.0312953.0137953-.0486063 0-.0511181-.0415748-.0926811-.0926811-.0926811-.00924409 0-.0181772.00135827-.0266063.00388976-.00747638.00224409-.0145591.00540945-.0211181.00936614-.0269173.0162323-.0449528.0457559-.0449528.0794252z" fill="#ffba00"></path><path d="m.168382.748012c.0510984 0 .0926772-.0415787.0926772-.0926732 0-.0343307-.019378-.0657165-.0488465-.0816496-.00543307-.00292913-.0111929-.00533465-.0172087-.0071378-.00843701-.00253543-.017374-.00389764-.026622-.00389764-.0511063 0-.0926772.0415787-.0926772.0926772 0 .0465669.0345197.0852165.0793031.0917205.00437008.00063386.00883465.00096063.013374.00096063z" fill="#ffba00"></path><path d="m.625343.274307c0 .0511024.0415787.0926811.0926772.0926811.0511024 0 .0926811-.0415787.0926811-.0926811 0-.00845669-.0011378-.0166496-.0032874-.0244331-.00006299-.00024016-.00012598-.00048032-.0001811-.00072047-.0109843-.0389173-.046811-.0675236-.0892126-.0675236-.0511024 0-.0926772.0415787-.0926772.0926772z" fill="#ffba00"></path><path d="m1.37145.0935472c-.0511142 0-.0926772.0415787-.0926772.0926811 0 .0510984.041563.0926772.0926772.0926772.0289882 0 .0549055-.013374.0719134-.0342717.0129803-.0159528.0207677-.0362874.0207677-.0584055 0-.0511024-.0415748-.0926811-.0926811-.0926811z" fill="#ffba00"></path><path d="m1.04705 1.58657c-.00659843-.0435236-.0435669-.0771929-.0885315-.0786772-.00103543-.00003543-.0020748-.00005118-.00311811-.00005118-.0501614 0-.0908307.0392283-.0926024.0893228-.00003937.00111417-.00005906.00223228-.00005906.00335827 0 .0511142.0415787.0926772.0926772.0926772.0510984 0 .0926811-.041563.0926811-.0926772 0-.00324803-.00016929-.00646063-.00049606-.00962598-.00001575-.00013386-.0000315-.00026772-.00004724-.00040158-.00014173-.0013189-.00031102-.00262598-.00050394-.0039252z" fill="#ffba00"></path><path d="m1.3745 1.05664c0 .0511142.041563.0926772.0926772.0926772.0511181 0 .0926811-.041563.0926811-.0926772 0-.0511181-.0415591-.0926811-.0926811-.0926811-.0511142 0-.0926772.041563-.0926772.0926811z" fill="#ffba00"></path><g fill="#010103"><path d="m.900504.964217c-.0920709 0-.166976-.0749173-.166976-.166976 0-.0920709.0749055-.166976.166976-.166976.0920709 0 .166976.0749055.166976.166976.00001181.0920709-.0749055.166976-.166976.166976zm0-.293972c-.0700157 0-.126992.0569646-.126992.126996 0 .0700157.0569606.126984.126992.126984.0700157 0 .126984-.0569646.126984-.126984-.00000394-.0700276-.0569685-.126996-.126984-.126996z"></path><path d="m.900504 1.21394c-.229772 0-.416701-.186933-.416701-.416705s.186929-.416705.416701-.416705.416705.186933.416705.416705-.186933.416705-.416705.416705zm0-.793409c-.207717 0-.376709.168988-.376709.376709 0 .207724.168988.376693.376709.376693.207724 0 .376693-.168976.376693-.376693s-.168976-.376709-.376693-.376709z"></path><path d="m.816154 1.58979c-.00070866 0-.00143307-.00004331-.00214961-.00012598-.405122-.0437441-.710618-.384429-.710618-.792421 0-.0192205.00072441-.0388976.00215354-.0585079.00040158-.00552362.00307874-.0106496.00741339-.0141339.00432283-.0034685.00987402-.00498425.0153898-.00420866.00440551.00064173.00891732.00096063.013374.00096063.0511063 0 .0926772-.0415787.0926772-.0926772 0-.0406378-.0271575-.0771535-.0660551-.0887913-.0053189-.00159449-.00974803-.00533071-.0121929-.0103189-.00245669-.00498425-.00273622-.0107638-.00075197-.0159567.116996-.307138.416437-.51348.74511-.51348.125205 0 .245102.0282598.356362.0839724.0049685.00248819.0086811.00694488.0102323.0122756.00155512.00533071.00083465.0110709-.00202362.0158622-.0085.0142598-.013.0306339-.013.0473425 0 .0511024.041563.0926772.0926772.0926772.0280236 0 .0542441-.0124882.0719646-.0342717.0035-.00432283.0086378-.00696063.0141732-.00733465.00550394-.00040158.0109882.00157087.0150276.00537402.159961.150157.251701.362004.251701.58122 0 .385343-.274736.715114-.653276.784146-.00543307.001-.0111142-.00032284-.0155512-.00366929-.00444882-.0033189-.00730709-.0083622-.00790157-.0138898-.00505512-.0471299-.0446732-.0826535-.0921535-.0826535-.0501614 0-.0908307.0392283-.0926102.0893228-.00019291.00553937-.00269291.0107638-.00688583.0144016-.00365354.00316535-.00830709.00488583-.0130866.00488583zm-.671913-.828457c-.00056693.012063-.00085827.0240787-.00085827.0359094 0 .380913.280331.700031.655291.750291.0121339-.0611063.0656575-.106358.130079-.106358.0605906 0 .112236.0404685.127854.0970551.349461-.0730827.601024-.381594.601024-.740984 0-.204693-.079685-.395094-.224827-.538374-.0240984.0214134-.0552008.0333701-.0880157.0333701-.0731693 0-.132685-.0595197-.132685-.132673 0-.0166063.00312205-.0330079.00911024-.0483307-.100626-.0471969-.208413-.071126-.320701-.071126-.30561 0-.584606.187835-.70048.469386.0446614.022.0743622.0683268.0743622.119165.00001181.0723307-.0581457.131307-.130154.132669z"></path><path d="m1.34478.292248c-.0731693 0-.132689-.0595157-.132689-.132669 0-.0731575.0595197-.132673.132689-.132673s.132689.0595157.132689.132673c0 .0731535-.0595354.132669-.132689.132669zm0-.225366c-.0511142 0-.0926772.0415787-.0926772.0926811 0 .0510984.041563.0926772.0926772.0926772s.0926811-.0415787.0926811-.0926772c0-.0511024-.0415748-.0926811-.0926811-.0926811z"></path><path d="m.928752 1.70654c-.0731535 0-.132673-.0595197-.132673-.132689s.0595197-.132689.132673-.132689c.0731693 0 .132689.0595197.132689.132689s-.0595354.132689-.132689.132689zm0-.225358c-.0511142 0-.0926772.041563-.0926772.0926811 0 .0511142.0415787.0926772.0926772.0926772.0510984 0 .0926811-.041563.0926811-.0926772 0-.0511181-.0415827-.0926811-.0926811-.0926811z"></path><path d="m.141717.761346c-.0731535 0-.132673-.0595197-.132673-.132673 0-.0731575.0595197-.132673.132673-.132673.0731535 0 .132673.0595157.132673.132673 0 .0731535-.0595197.132673-.132673.132673zm0-.225358c-.0511063 0-.0926772.0415787-.0926772.0926772 0 .0511063.0415787.0926811.0926772.0926811.0510984 0 .0926772-.0415787.0926772-.0926811.00001575-.0510827-.041563-.0926772-.0926772-.0926772z"></path><path d="m.900504.604449c-.0110354 0-.0199961-.00895669-.0199961-.0199961v-.0726811c0-.0110394.0089685-.0199961.0199961-.0199961s.0199961.00895669.0199961.0199961v.0726811c.00001575.0110433-.00895669.0199961-.0199961.0199961z"></path><path d="m1.00689.632961c-.00340157 0-.00683465-.00087795-.00998425-.0026811-.00956693-.00551181-.0128425-.017748-.00731496-.027315l.0363386-.0629528c.00552756-.00956693.0178031-.0127992.027315-.00731496.00956693.00551181.0128425.0177441.00731496.027315l-.0363386.0629488c-.0037126.00642126-.0104291.01-.0173307.01z"></path><path d="m1.0848.710854c-.00690157 0-.013622-.00358661-.0173307-.01-.00550787-.00956693-.00224803-.0218031.0073189-.027311l.0629488-.0363425c.00951181-.00551181.0217795-.00226378.027315.00731496.00551181.00957087.00225197.0218031-.00731496.027315l-.0629528.0363425c-.00315354.00180315-.00658268.0026811-.00998425.0026811z"></path><path d="m1.18597.817224h-.0726811c-.0110394 0-.0199961-.00895669-.0199961-.0199961 0-.0110354.0089685-.0199961.0199961-.0199961h.0726811c.0110394 0 .0199961.00896063.0199961.0199961 0 .0110394-.00895276.0199961-.0199961.0199961z"></path><path d="m1.14772.95998c-.00340157 0-.00683465-.00087402-.00998425-.0026811l-.0629488-.0363425c-.00956693-.00550787-.0128425-.0177441-.0073189-.027311.00552756-.00957087.0178031-.0128189.027315-.0073189l.0629528.0363425c.00956693.00551181.0128425.0177441.00731496.027315-.00369685.00640157-.0104291.00999606-.0173307.00999606z"></path><path d="m1.04326 1.06446c-.00690157 0-.013626-.00359449-.0173307-.0100157l-.0363425-.0629488c-.00550787-.00955512-.00224803-.0217874.0073189-.027315.00952362-.0055.0217756-.00225984.027311.00731496l.0363425.0629528c.00551181.00955118.00225197.0217874-.00731496.027315-.00314961.00183465-.00658268.00269685-.00998425.00269685z"></path><path d="m.900504 1.10271c-.0110354 0-.0199961-.0089685-.0199961-.0199961v-.0726811c0-.0110394.0089685-.0199961.0199961-.0199961s.0199961.0089685.0199961.0199961v.0726811c.00001575.0110394-.00895669.0199961-.0199961.0199961z"></path><path d="m.757748 1.06446c-.00338976 0-.00683071-.00087795-.00998031-.0026811-.00955512-.00551181-.0128346-.017748-.0073189-.027315l.0363425-.0629528c.00551181-.00956693.0177362-.0128425.027315-.00731496.00955118.00551181.0128307.0177441.00731496.027315l-.0363425.0629488c-.00369291.00640551-.0104173.01-.0173307.01z"></path><path d="m.653303.95998c-.00691732 0-.0136339-.00359449-.0173465-.0100118-.00551181-.00955512-.00225197-.0217874.00731496-.027315l.0629528-.0363425c.00958268-.00552362.0218031-.00223622.027315.0073189.00550787.00955118.00225197.0217874-.0073189.027311l-.0629488.0363425c-.00314567.00182283-.00657874.00269685-.0099685.00269685z"></path><path d="m.687728.817224h-.0726929c-.0110354 0-.0199961-.00895669-.0199961-.0199961 0-.0110354.00896063-.0199961.0199961-.0199961h.0726811c.0110394 0 .02.00896063.02.0199961 0 .0110394-.00894488.0199961-.0199882.0199961z"></path><path d="m.716213.710854c-.00338976 0-.00683465-.00087795-.00998425-.0026811l-.0629488-.0363425c-.00955512-.00551181-.0128346-.0177441-.0073189-.027315.00551575-.00956693.0177205-.0128425.027315-.00731496l.0629528.0363425c.00955118.00550787.0128307.0177441.00731496.027311-.00369685.00639764-.0104134.01-.0173307.01z"></path><path d="m.794134.632961c-.00691732 0-.0136378-.00358661-.0173465-.01l-.0363425-.0629488c-.00551181-.00957087-.00225197-.0218031.00731496-.027315.00958661-.00552756.0218031-.00223622.027315.00731496l.0363425.0629528c.00550787.00956693.00225197.0218031-.0073189.027315-.00313386.00180709-.00658268.0026811-.00996457.0026811z"></path><path d="m1.44052 1.16264c-.0731693 0-.132685-.0595157-.132685-.132685 0-.0731732.0595157-.132689.132685-.132689.0731732 0 .132689.0595157.132689.132689 0 .0731693-.0595157.132685-.132689.132685zm0-.22535c-.0511142 0-.0926772.041563-.0926772.0926811 0 .0511142.041563.0926772.0926772.0926772.0511181 0 .0926811-.041563.0926811-.0926772 0-.0511181-.0415591-.0926811-.0926811-.0926811z"></path><path d="m.691354.380319c-.0731535 0-.132673-.0595157-.132673-.132669 0-.0731575.0595197-.132673.132673-.132673.0731535 0 .132673.0595157.132673.132673 0 .0731535-.0595197.132669-.132673.132669zm0-.225354c-.0511024 0-.0926772.0415787-.0926772.0926772 0 .0511024.0415787.0926811.0926772.0926811.0511024 0 .0926811-.0415787.0926811-.0926811 0-.0510984-.041563-.0926772-.0926811-.0926772z"></path><path d="m.427614 1.27924c-.0731535 0-.132673-.0595197-.132673-.132689s.0595197-.132689.132673-.132689c.0731575 0 .132673.0595197.132673.132689s-.0595118.132689-.132673.132689zm0-.225374c-.0511024 0-.0926772.041563-.0926772.0926811 0 .0511142.0415787.0926772.0926772.0926772.0511024 0 .0926811-.041563.0926811-.0926772 0-.0511181-.0415748-.0926811-.0926811-.0926811z"></path></g><path d="m1.02749.79724c-.00000394-.0700276-.0569685-.126996-.126984-.126996-.0700157 0-.126992.0569646-.126992.126996 0 .0700157.0569606.126984.126992.126984.0700157 0 .126984-.0569646.126984-.126984z" fill="#fff"></path><path d="m.900504 1.40512c-.152657 0-.298638-.0568701-.411051-.160087-.00414961-.00380709-.00649606-.00919685-.0064685-.014815.00002362-.0056378.00242913-.0110039.0066063-.0147677.0195079-.0175669.030689-.0426732.030689-.0688898 0-.0511181-.0415787-.0926811-.0926811-.0926811-.0168583 0-.0333543.00455512-.0477283.0132047-.00483465.00288976-.0106929.00362992-.0160669.00201575-.00540157-.00162598-.0098622-.00545669-.0122913-.0105394-.0390906-.0819449-.0589094-.169862-.0589094-.261307 0-.211512.107374-.404591.28722-.516465.00479134-.00298425.0106063-.00380315.0160236-.00225984.00541732.00154331.00994094.0052874.0124449.0103346.0157874.0317559.0476063.0514921.0830433.0514921.0511063 0 .0926772-.0415787.0926772-.0926772 0-.00829528-.00109449-.0165157-.00326378-.0244724-.0014685-.00544094-.00059843-.0112441.00242913-.0159961.0030315-.00474803.00791732-.00801575.0134685-.00896063.0342047-.00588583.0691457-.00887402.103835-.00887402.335181 0 .607878.272693.607878.607882 0 .0435354-.0046811.0871535-.0139134.12965-.00119685.0055-.00466535.010252-.00955118.0130709s-.0107323.00343307-.0160827.00172047c-.0091378-.00291732-.0186772-.00438976-.0283307-.00438976-.0511142 0-.0926772.0415669-.0926772.0926811 0 .0337323.0183583.0648346.0479331.0811929.00491732.00272441.00847244.0073937.00977953.0128858.00130709.00548425.00023622.011248-.00296063.0158976-.113484.166028-.301193.265154-.502051.265154zm-.368913-.176177c.102819.0879685.233035.136189.368913.136189.180917 0 .350421-.0860984.457402-.231315-.031315-.0249567-.0500748-.063063-.0500748-.103846 0-.0731732.0595157-.132689.132685-.132689.0063189 0 .0125984.00044488.0188031.00133071.00602362-.0333937.00905118-.0674055.00905118-.101374 0-.313134-.254752-.56789-.567886-.56789-.0257165 0-.051563.00174803-.0771142.00522441.00043307.00434646.00064173.00868898.00064173.0130669 0 .0731535-.0595197.132673-.132673.132673-.0432008 0-.0826378-.0204843-.107343-.0546299-.157783.105902-.251378.280697-.251378.471555 0 .0786378.0156772.154492.0466417.225744.0153307-.006.0317165-.00911024.0483386-.00911024.0731575 0 .132673.0595197.132673.132689.00002362.0300512-.0102441.0590866-.0286811.0823819z" fill="#010103"></path></g></svg>