<!-- icon666.com - MILLIONS vector ICONS FREE --><svg id="planets" enable-background="new 0 0 300 300" viewBox="0 0 300 300" xmlns="http://www.w3.org/2000/svg"><g><circle cx="122" cy="174.003" fill="#edebdc" r="92"></circle><g><circle cx="97.927" cy="94.076" fill="#b5a19c" r="60"></circle><path d="m97.926 158.075c-35.289 0-64-28.711-64-64s28.711-64 64-64 64 28.711 64 64-28.711 64-64 64zm0-120c-30.879 0-56 25.121-56 56s25.121 56 56 56 56-25.121 56-56-25.121-56-56-56z" fill="#4c241d"></path></g><g><path d="m73.367 148.78c-.357-6.708-1.965-16.088-7.106-26.37-10-20 6.667-20-16.667-40-3.299-2.827-6.321-4.627-9.096-5.682-1.658 5.495-2.571 11.313-2.571 17.349 0 24.375 14.562 45.313 35.44 54.703z" fill="#fc8c29"></path><path d="m73.367 152.78c-.559 0-1.117-.117-1.641-.352-22.964-10.328-37.8-33.232-37.8-58.353 0-6.244.922-12.471 2.742-18.502.32-1.062 1.066-1.943 2.062-2.434s2.145-.547 3.188-.152c3.375 1.283 6.832 3.43 10.277 6.385 14.391 12.336 15.117 18.135 14.598 26.217-.25 3.896-.508 7.924 3.047 15.031 4.414 8.832 7.016 18.494 7.523 27.945.074 1.395-.582 2.725-1.734 3.514-.676.465-1.469.701-2.262.701zm-30.234-70.23c-.801 3.799-1.207 7.658-1.207 11.525 0 19.51 10.234 37.494 26.59 47.609-.902-5.043-2.629-11.08-5.832-17.486-4.52-9.041-4.16-14.629-3.875-19.121.348-5.422.578-9.004-11.816-19.631-1.309-1.121-2.598-2.088-3.86-2.896z" fill="#4c241d"></path></g><g><path d="m144.205 55.887c-11.005-13.321-27.65-21.811-46.278-21.811-17.957 0-34.027 7.93-45.023 20.431 8.483 4.812 18.207 13.373 20.023 27.902 3.333 26.667 33.333 23.333 33.333 23.333s23.333-3.333 26.667-30c1.131-9.044 5.716-15.399 11.278-19.855z" fill="#fc8c29"></path><path d="m102.602 109.929c-12.395 0-30.949-5.465-33.645-27.023-1.312-10.494-7.379-18.879-18.027-24.92-1.047-.594-1.773-1.627-1.973-2.814s.148-2.402.941-3.307c12.18-13.848 29.684-21.789 48.027-21.789 19.156 0 37.148 8.48 49.363 23.266.68.826 1.004 1.891.895 2.955-.109 1.066-.645 2.043-1.48 2.713-5.641 4.523-8.941 10.32-9.809 17.232-3.668 29.355-29.805 33.424-30.066 33.461-1.289.144-2.711.226-4.226.226zm-43.426-56.2c10.195 7.098 16.289 16.756 17.719 28.184 2.805 22.383 27.875 19.961 28.934 19.854.68-.107 20.234-3.344 23.129-26.52.961-7.674 4.191-14.279 9.617-19.689-10.562-11.154-25.172-17.482-40.648-17.482-14.47-.001-28.345 5.653-38.751 15.653z" fill="#4c241d"></path></g><g><path d="m97.927 34.003c-5.43 0-10.666.786-15.669 2.136 3.894 6.462 7.326 13.787 7.326 19.557 0 13.35 3.337 23.362 16.687 20.024 8.712-2.178 12.45-22.118 17.705-35.712-7.889-3.809-16.702-6.005-26.049-6.005z" fill="#b5a19c"></path><path d="m101.496 80.366c-3.453 0-6.414-.955-8.852-2.855-4.816-3.762-7.062-10.693-7.062-21.814 0-2.871-1.172-8.236-6.75-17.492-.648-1.074-.754-2.393-.285-3.557s1.457-2.043 2.668-2.369c15.379-4.156 30.668-2.547 44.5 4.129 1.879.904 2.746 3.102 1.992 5.045-1.273 3.289-2.496 7.1-3.68 10.785-4.164 12.955-8.098 25.189-16.789 27.363-2.039.509-3.957.765-5.742.765zm-13.113-41.504c3.453 6.605 5.199 12.252 5.199 16.834 0 8.225 1.34 13.443 3.984 15.508 1.66 1.289 4.258 1.502 7.734.635 4.375-1.094 8.266-13.205 11.109-22.049.816-2.547 1.656-5.15 2.527-7.648-9.651-3.942-19.952-5.165-30.553-3.28z" fill="#4c241d"></path></g><g fill="#4c241d"><path d="m186.914 75.11c-1.023 0-2.047-.391-2.828-1.172-1.562-1.562-1.562-4.094 0-5.656l14.172-14.172c1.562-1.562 4.094-1.562 5.656 0s1.562 4.094 0 5.656l-14.172 14.172c-.781.782-1.804 1.172-2.828 1.172z"></path><path d="m201.086 75.11c-1.023 0-2.047-.391-2.828-1.172l-14.172-14.172c-1.562-1.562-1.562-4.094 0-5.656s4.094-1.562 5.656 0l14.172 14.172c1.562 1.562 1.562 4.094 0 5.656-.781.782-1.805 1.172-2.828 1.172z"></path><circle cx="62" cy="246.003" r="4"></circle><circle cx="266" cy="126.003" r="4"></circle><circle cx="74" cy="170.003" r="4"></circle><circle cx="254" cy="78.003" r="4"></circle></g><g><circle cx="178" cy="190.003" fill="#9dc1e4" r="76"></circle><path d="m178 270.003c-44.113 0-80-35.889-80-80s35.887-80 80-80 80 35.889 80 80-35.887 80-80 80zm0-152c-39.699 0-72 32.299-72 72s32.301 72 72 72 72-32.299 72-72-32.301-72-72-72z" fill="#4c241d"></path></g><g><path d="m253.502 181.398c-1.705-15.117-7.833-28.891-17.075-39.991-16.663 7.464-37.538 11.646-58.427 2.151-29.212-13.278-51.734-3.173-64.432 6.154-4.657 7.432-8.071 15.721-9.934 24.584 7.271-10.099 22.532-25.866 60.045-13.849 49.517 15.863 56.406 39.168 89.823 20.951z" fill="#c1dbdc"></path><path d="m231.66 192.05c-10.441 0-19.285-4.736-30.41-10.695-9.672-5.178-21.707-11.625-38.789-17.098-33.984-10.885-48 1.848-55.582 12.377-1.102 1.535-3.137 2.086-4.859 1.322-1.73-.764-2.691-2.633-2.301-4.482 1.93-9.18 5.449-17.889 10.457-25.885.27-.428.617-.803 1.023-1.102 11.836-8.693 36.473-21.115 68.457-6.57 16.578 7.537 35.125 6.803 55.133-2.16 1.645-.73 3.566-.285 4.711 1.092 10.012 12.021 16.227 26.58 17.977 42.104.18 1.615-.633 3.182-2.062 3.959-9.341 5.091-16.892 7.138-23.755 7.138zm-92.711-39.979c7.82 0 16.457 1.525 25.949 4.568 17.777 5.693 30.172 12.33 40.129 17.664 17.102 9.156 26.035 13.945 44.145 4.85-1.809-11.977-6.594-23.236-13.965-32.865-21.129 8.76-40.914 9.072-58.863.91-26.418-12.006-47.008-3.887-59.789 5.289-1.438 2.344-2.73 4.754-3.879 7.223 7.457-5.1 16.187-7.639 26.273-7.639z" fill="#4c241d"></path></g><g><path d="m178 266.003c28.419 0 53.178-15.609 66.216-38.711-14.961 7.843-35.143 13.162-57.772 4.934-28.456-10.348-45.802 4.662-54.982 17.842 12.862 9.978 29 15.935 46.538 15.935z" fill="#c1dbdc"></path><path d="m178 270.003c-17.902 0-34.844-5.801-48.992-16.775-1.68-1.305-2.047-3.699-.828-5.445 14.688-21.098 35.859-27.955 59.633-19.316 17.84 6.488 36.195 4.9 54.547-4.717 1.562-.824 3.492-.518 4.727.758 1.234 1.273 1.484 3.207.613 4.75-14.184 25.131-40.891 40.745-69.7 40.745zm-40.93-20.778c12.062 8.371 26.129 12.777 40.93 12.777 21.383 0 41.48-9.559 55.027-25.596-16.07 5.332-32.426 5.223-47.949-.422-23.566-8.567-38.855 1.738-48.008 13.241z" fill="#4c241d"></path></g><g><ellipse cx="150.546" cy="196.003" fill="#c1dbdc" rx="30.853" ry="10"></ellipse><path d="m150.547 210.003c-17.348 0-34.855-4.328-34.855-14s17.508-14 34.855-14 34.852 4.328 34.852 14-17.504 14-34.852 14zm0-20c-17.086 0-26.156 4.426-26.883 6.188.727 1.387 9.797 5.812 26.883 5.812 16.508 0 25.531-4.133 26.777-6-1.246-1.867-10.269-6-26.777-6zm26.879 6.187h.043z" fill="#4c241d"></path></g><path d="m62 214.003c-6.617 0-12-5.383-12-12s5.383-12 12-12 12 5.383 12 12-5.383 12-12 12zm0-16c-2.207 0-4 1.795-4 4s1.793 4 4 4 4-1.795 4-4-1.793-4-4-4z" fill="#4c241d"></path></g></svg>