<!-- icon666.com - MILLIONS vector ICONS FREE --><svg version="1.1" id="Layer_1" xmlns="http://www.w3.org/2000/svg" xmlns:xlink="http://www.w3.org/1999/xlink" x="0px" y="0px" viewBox="0 0 512 512" style="enable-background:new 0 0 512 512;" xml:space="preserve"><g><g><path d="M437.019,74.981C388.668,26.628,324.38,0,256,0S123.332,26.628,74.981,74.981C26.629,123.333,0,187.62,0,256 c0,68.38,26.628,132.668,74.981,181.019C123.333,485.371,187.62,512,256,512c68.38,0,132.668-26.628,181.019-74.981 C485.371,388.667,512,324.38,512,256S485.372,123.332,437.019,74.981z M256,31.347c107.663,0,197.864,76.133,219.633,177.386 c-103.452-2.476-157.207-23.503-213.922-45.697c-48.963-19.159-99.435-38.905-182.383-45.657 C120.496,65.027,184.388,31.347,256,31.347z M31.347,256c0-15.663,1.617-30.955,4.682-45.723 c3.573-0.855,7.245-1.298,10.991-1.298c25.927,0,47.02,21.093,47.02,47.02s-21.093,47.02-47.02,47.02 c-3.745,0-7.419-0.442-10.991-1.298C32.963,286.955,31.347,271.663,31.347,256z M256,480.653c-2.22,0-4.43-0.042-6.635-0.106 c20.974-11.744,39.398-23.824,57.451-35.662c39.935-26.189,77.984-51.137,141.099-72.212 C408.435,437.37,337.178,480.653,256,480.653z M466.634,334.121c-84.736,24.042-131.625,54.788-177.01,84.551 c-29.039,19.044-56.544,37.075-93.777,53.79c-46.698-12.992-87.324-40.717-116.518-77.842 c82.948-6.753,133.421-26.498,182.383-45.657c56.715-22.194,110.47-43.22,213.922-45.696 C473.359,313.844,470.344,324.149,466.634,334.121z M250.289,319.771c-52.417,20.51-102.03,39.921-190.91,44.792 c-5.359-9.667-10.027-19.766-13.935-30.234c0.527,0.01,1.049,0.039,1.577,0.039c43.212,0,78.367-35.156,78.367-78.367 c0-43.212-35.156-78.367-78.367-78.367c-0.528,0-1.05,0.028-1.576,0.039c3.907-10.469,8.576-20.568,13.935-30.235 c88.88,4.87,138.493,24.281,190.91,44.792c57.709,22.581,117.316,45.898,229.799,47.948c0.365,5.23,0.564,10.503,0.564,15.824 c0,5.321-0.2,10.594-0.565,15.823C367.605,273.873,307.997,297.189,250.289,319.771z"></path></g></g><g><g><rect x="156.735" y="240.327" width="31.347" height="31.347"></rect></g></g><g><g><rect x="334.367" y="106.58" width="31.347" height="31.347"></rect></g></g></svg>