<!-- icon666.com - MILLIONS vector ICONS FREE --><svg viewBox="0 0 60 60" xmlns="http://www.w3.org/2000/svg"><g id="Icons_copy" data-name="Icons copy"><circle cx="30" cy="30" fill="#ff5722" r="25"></circle><path d="m28.5 5.049a25 25 0 0 1 0 49.9 25 25 0 1 0 0-49.9z" fill="#d84315"></path><circle cx="6" cy="6" fill="#ffeb3a" r="5"></circle><path d="m4.5 1.254a4.971 4.971 0 0 1 0 9.492 4.983 4.983 0 1 0 0-9.492z" fill="#fdd834"></path><circle cx="57" cy="57" fill="#ffdf00" r="2"></circle><circle cx="56" cy="48" fill="#ffeb3a" r="3"></circle><path d="m54.5 45.416a2.976 2.976 0 0 1 0 5.168 2.992 2.992 0 1 0 0-5.168z" fill="#fdd834"></path><path d="m6.2 19.548a.964.964 0 0 0 -.053.118 25.919 25.919 0 0 0 -.392 19.709l.009.024a25.913 25.913 0 0 0 1.952 3.982c.006.015.017.026.024.041a25.966 25.966 0 0 0 37.918 7.318c.018-.016.04-.027.057-.045a25.971 25.971 0 0 0 10.285-20.695c0-.327-.013-.652-.025-.977 0-.008 0-.015 0-.023s-.006-.02-.006-.03a25.947 25.947 0 0 0 -9-18.643.873.873 0 0 0 -.1-.084 25.965 25.965 0 0 0 -40.669 9.305zm47.71 8.452h-16.91a1 1 0 0 0 0 2h17c0 .674-.035 1.34-.09 2h-10.91a1 1 0 0 0 0 2h10.66a24.018 24.018 0 0 1 -9.022 15h-12.638a1 1 0 0 0 0 2h9.6a23.954 23.954 0 0 1 -31.077-7h13.477a1 1 0 0 0 0-2h-14.771q-.564-.972-1.038-2h21.809a1 1 0 0 0 0-2h-22.624a23.863 23.863 0 0 1 -1.036-12h23.66a1 1 0 0 0 0-2h-23.24a23.547 23.547 0 0 1 1-3h16.24a1 1 0 0 0 0-2h-15.32a23.966 23.966 0 0 1 34.566-9h-8.246a1 1 0 0 0 0 2h10.849a23.953 23.953 0 0 1 8.061 16z"></path><path d="m6 12a6 6 0 1 0 -6-6 6.006 6.006 0 0 0 6 6zm0-10a4 4 0 1 1 -4 4 4 4 0 0 1 4-4z"></path><path d="m57 54a3 3 0 1 0 3 3 3 3 0 0 0 -3-3zm0 4a1 1 0 1 1 1-1 1 1 0 0 1 -1 1z"></path><path d="m56 44a4 4 0 1 0 4 4 4 4 0 0 0 -4-4zm0 6a2 2 0 1 1 2-2 2 2 0 0 1 -2 2z"></path></g></svg>