<!-- icon666.com - MILLIONS vector ICONS FREE --><svg id="Layer_1" enable-background="new 0 0 450 450" viewBox="0 0 450 450" xmlns="http://www.w3.org/2000/svg" xmlns:xlink="http://www.w3.org/1999/xlink"><linearGradient id="SVGID_1_" gradientTransform="matrix(1 0 0 -1 0 450)" gradientUnits="userSpaceOnUse" x1="71.184" x2="377.469" y1="402.284" y2="96"><stop offset="0" stop-color="#00dbde"></stop><stop offset="1" stop-color="#fc00ff"></stop></linearGradient><path d="m351.6 32.8c0 4.5-1.4 8.7-3.7 12.2-.4.6-.8 1.1-1.3 1.7-.2.3-.5.5-.7.8-.2.3-.5.5-.7.7-.5.5-1 1-1.5 1.4-.3.2-.5.4-.8.6-.2.2-.5.4-.8.6-.6.4-1.2.8-1.9 1.2-.3.2-.6.3-.9.5-.3.1-.6.3-.9.4 0 0-.1 0-.1.1-.3.1-.6.2-.9.3-.9.3-1.9.6-2.8.8-.2 0-.4.1-.6.1-.3.1-.5.1-.8.1-.4.1-.7.1-1.1.1s-.7.1-1.1.1-.7 0-1.1 0c-12 0-21.8-9.8-21.8-21.8 0-.4 0-.7 0-1.1 0-.3 0-.5.1-.8 0-.1 0-.3 0-.4 0-.3.1-.6.1-.9v-.1c0-.4.1-.7.2-1s.1-.6.2-.9c0-.1 0-.2.1-.3.1-.2.1-.5.2-.7 0-.1.1-.3.1-.4.1-.2.2-.5.2-.7.2-.7.5-1.3.8-2 3.5-7.3 11-12.3 19.6-12.3 12.1-.1 21.9 9.7 21.9 21.7zm-282.1 67.4c0 .5.1 1 .1 1.6 0 12-9.8 21.8-21.8 21.8-.4 0-.7 0-1.1 0-.3 0-.6 0-.9-.1h-.1c-.1 0-.3 0-.4 0-.3 0-.5-.1-.8-.1-.1 0-.2 0-.2 0-.3-.1-.6-.1-.9-.2s-.6-.1-.9-.2c-.7-.2-1.5-.4-2.2-.7-.3-.1-.6-.2-.9-.4 0 0 0 0-.1 0-.3-.1-.6-.3-.9-.4s-.6-.3-.9-.5c-6.8-3.7-11.4-10.9-11.4-19.2 0-12 9.8-21.8 21.8-21.8 4.9 0 9.4 1.6 13 4.3.3.2.6.4.8.7.3.2.5.4.7.6 0 0 0 0 .1.1l.7.7s.5.5.7.7c2.3 2.6 4.1 5.7 4.9 9.2.1.3.2.7.2 1.1.1.3.1.7.2 1 0 .1 0 .2.1.3 0 .2.1.4.1.7s.1.5.1.8zm277.6 206.7c4.8 4 7.9 10 7.9 16.8 0 12-9.8 21.8-21.8 21.8-7.5 0-14.1-3.8-18.1-9.6-.2-.3-.4-.6-.6-.9s-.3-.6-.5-.9c-.7-1.2-1.2-2.5-1.6-3.9-.1-.3-.2-.6-.3-.9s-.1-.6-.2-.9-.1-.6-.2-.9c0-.2-.1-.4-.1-.6 0-.3-.1-.6-.1-.9 0-.1 0-.2 0-.2 0-.3 0-.6-.1-1 0-.4 0-.7 0-1.1 0-12 9.8-21.8 21.8-21.8h1.1c.3 0 .6 0 .9.1.2 0 .5 0 .7.1h.1c.2 0 .5.1.7.1.4.1.9.1 1.3.3.3.1.5.1.7.2.3.1.6.2.9.3s.6.2.9.3c.6.2 1.1.5 1.7.7.2.1.4.2.5.3l.6.3c.4.2.7.4 1.1.6.2.1.4.3.6.4.3.2.7.5 1 .7.6.1.9.3 1.1.6zm-44.1 111.3c0 12-9.8 21.8-21.8 21.8-10.5 0-19.3-7.5-21.3-17.3-.3-1.4-.5-2.9-.5-4.4 0-12 9.8-21.8 21.8-21.8.6 0 1.3 0 1.9.1h.5c.3 0 .6.1.9.1.4 0 .7.1 1.1.2.3 0 .5.1.8.2.2 0 .5.1.7.2h.1c.3.1.5.1.8.2.7.2 1.3.5 2 .7.3.1.5.2.8.4.6.3 1.2.6 1.8 1 3.6 2.2 6.5 5.4 8.4 9.2.1.3.3.6.4.9v.1c.1.3.3.6.4.9 0 .1.1.2.1.3.7 2.3 1.1 4.7 1.1 7.2zm50-363.4c-1.8 1.9-3.8 3.6-6 4.9-.2.2-.4.3-.6.4s-.5.3-.7.4-.4.2-.6.3c-.7.4-1.5.8-2.2 1.1-.2.1-.5.2-.7.3s-.5.2-.7.3-.5.2-.7.3-.5.2-.7.3c-1.2.4-2.5.8-3.8 1-.5.1-1 .2-1.5.3s-1.1.2-1.6.2c-.2 0-.4.1-.6.1-.9.1-1.8.1-2.6.1-17.6 0-32-14.3-32-32 0-1.2.1-2.3.2-3.5 0-.3.1-.7.1-1 0-.2 0-.4.1-.5.2-1.3.5-2.5.8-3.7 0-.1 0-.2.1-.3-23.8-9.2-48.7-13.8-74.3-13.8-59.2 0-115.1 25.3-154.1 69.7l.6.6s.3.4.5.6c.3.4.7.8 1 1.2s.6.7.8 1.1c.3.4.6.8.9 1.3 2.5 3.8 4.1 8.1 4.8 12.7.2 1 .2 2 .3 3.1v1.6c0 17.6-14.3 32-32 32-.4 0-.9 0-1.3 0s-.9 0-1.3-.1c-.9-.1-1.8-.2-2.7-.3-.4-.1-.7-.1-1.1-.2-.2 0-.4-.1-.6-.1-.3-.1-.6-.1-.9-.2-.9-.2-1.7-.5-2.5-.8-11.7 26.3-17.7 54.3-17.7 83.4 0 113.2 92.1 205.4 205.4 205.4 8.1 0 16.2-.5 24.3-1.4 0-.4 0-.7 0-1.1 0-17.6 14.4-32 32-32 1.1 0 2.3.1 3.4.2.3 0 .6.1 1 .1s.7.1 1.1.2.7.1 1 .2c.4.1.7.1 1.1.2s.7.2 1 .3c.7.2 1.4.4 2 .6 1.1.4 2.2.9 3.3 1.4.2.1.5.2.7.4.5.3 1 .5 1.5.8l.6.3c.7.4 1.3.8 1.9 1.3.2.1.4.3.6.5 3.5 2.6 6.4 5.9 8.6 9.7.1.1.2.3.2.4 73.8-33.2 121.1-106.2 121.1-187.4-.1-63.4-28.3-121.7-77.5-160.9zm12.3 268.9c0 17.6-14.3 32-32 32-8.1 0-15.6-3.1-21.3-8.1-25.9 17.1-55.9 26.1-87.1 26.1-87.3 0-158.2-71-158.2-158.2 0-51 24.5-98.7 65.9-128.5-1.4-3.5-2.1-7.4-2.1-11.4 0-17.6 14.3-32 32-32 12.3 0 23.1 7 28.4 17.3 11.2-2.5 22.6-3.7 34.1-3.7 87.3 0 158.2 71 158.2 158.2 0 31.2-9 61.2-26.1 87 5.1 5.7 8.2 13.1 8.2 21.3zm-181-248.2c0 6.8-3.1 12.8-7.9 16.8-.5.4-1.1.9-1.7 1.3s-1.2.8-1.8 1.1c-1.8 1-3.9 1.8-6 2.2-1.4.3-2.9.4-4.4.4-.2 0-.5 0-.7 0s-.5 0-.7 0c-.5 0-1-.1-1.4-.1-.2 0-.5-.1-.7-.1-2.1-.4-4.2-1-6.1-2-.5-.2-.9-.5-1.3-.7s-.7-.4-1.1-.7c-.1-.1-.2-.1-.2-.2-.3-.2-.5-.3-.7-.5-.2-.1-.4-.3-.6-.4-.1-.1-.2-.2-.3-.3-.2-.2-.4-.3-.6-.5-.3-.2-.5-.5-.8-.8-.2-.2-.4-.4-.5-.6-.1-.1-.2-.2-.3-.3-.2-.2-.4-.4-.6-.7s-.4-.5-.6-.8-.4-.6-.6-.9c-.1-.2-.3-.4-.4-.6s-.2-.3-.3-.5c-1.9-3.2-3-7-3-11 0-12 9.8-21.8 21.8-21.8 9.5 0 17.6 6.1 20.6 14.7v.1c.1.2.2.5.2.7.4 1.4.7 2.7.8 4.2 0 .3.1.6.1.9-.3.3-.2.7-.2 1.1zm40.7-8.2c-10.4 0-20.8 1.1-30.9 3.3.2 1.1.3 2.2.4 3.3v.2.5 1c0 8.8-3.6 16.8-9.4 22.6s-13.8 9.4-22.6 9.4c-2.4 0-4.8-.3-7.1-.8-1.4-.3-2.9-.7-4.2-1.3-.6-.2-1.1-.4-1.6-.7-.3-.1-.5-.2-.8-.4-.3-.1-.5-.2-.8-.4-.3-.1-.5-.3-.8-.4-.4-.2-.9-.5-1.3-.7-.4-.3-.9-.6-1.3-.8-.2-.1-.4-.3-.6-.4-1-.7-2-1.5-3-2.4-.2-.2-.4-.3-.6-.5-1-.9-1.9-1.9-2.7-2.9-38.1 27.7-60.7 72.1-60.7 119.5 0 81.6 66.4 148 148.1 148 28.8 0 56.6-8.2 80.6-23.8-1-1.8-1.9-3.7-2.6-5.7-.2-.6-.4-1.3-.6-2-.1-.3-.2-.7-.3-1-.1-.4-.2-.8-.3-1.2 0-.3-.1-.6-.1-.9-.1-.4-.1-.7-.1-1s-.1-.6-.1-.9v-.1c0-.3-.1-.7-.1-1 0-.4 0-.7 0-1 0-.4 0-.7 0-1 0-17.6 14.3-32 32-32h1 1c.4 0 .7 0 1 .1h.1c.3 0 .6.1.9.1.4 0 .7.1 1 .1.7.1 1.3.2 2 .4.3.1.7.2 1 .3.7.2 1.3.4 2 .6.4.1.7.2 1 .4.3.1.6.2.9.4.2.1.5.2.7.3l3 1.5c15.6-24 23.8-51.8 23.8-80.6.1-81.7-66.3-148.1-147.9-148.1zm0 249c-55.6 0-100.9-45.3-100.9-100.9 0-55.7 45.3-100.9 100.9-100.9s100.9 45.3 100.9 100.9-45.3 100.9-100.9 100.9zm0-191.7c-50 0-90.7 40.7-90.7 90.7s40.7 90.7 90.7 90.7 90.7-40.7 90.7-90.7-40.7-90.7-90.7-90.7zm39.1 62.3 8.5-4.9c2.4-1.4 5.5-.6 7 1.9 1.4 2.4.6 5.6-1.9 7l-8.5 4.9c-.8.5-1.7.7-2.5.7-1.8 0-3.5-.9-4.4-2.6-1.5-2.5-.7-5.6 1.8-7zm-19.5-15.7 4.9-8.5c1.4-2.4 4.5-3.3 7-1.9 2.4 1.4 3.3 4.5 1.9 7l-4.9 8.5c-.9 1.6-2.6 2.6-4.4 2.6-.9 0-1.7-.2-2.5-.7-2.6-1.5-3.4-4.6-2-7zm-24.7-13.7c0-2.8 2.3-5.1 5.1-5.1s5.1 2.3 5.1 5.1v9.8c0 2.8-2.3 5.1-5.1 5.1s-5.1-2.3-5.1-5.1zm-26.4 3.4c2.4-1.4 5.6-.6 7 1.9l4.9 8.5c1.4 2.4.6 5.6-1.9 7-.8.5-1.7.7-2.6.7-1.8 0-3.5-.9-4.4-2.6l-4.9-8.5c-1.3-2.5-.5-5.6 1.9-7zm-31.5 54.5c0-2.8 2.3-5.1 5.1-5.1h9.8c2.8 0 5.1 2.3 5.1 5.1s-2.3 5.1-5.1 5.1h-9.8c-2.8 0-5.1-2.3-5.1-5.1zm23.9 28.4-8.5 4.9c-.8.5-1.7.7-2.5.7-1.8 0-3.5-.9-4.4-2.5-1.4-2.4-.6-5.5 1.9-7l8.5-4.9c2.4-1.4 5.6-.6 7 1.9 1.3 2.4.5 5.5-2 6.9zm1.9-49.9c-.9 1.6-2.7 2.6-4.4 2.6-.9 0-1.7-.2-2.5-.7l-8.5-4.9c-2.4-1.4-3.3-4.5-1.9-7s4.5-3.3 7-1.9l8.5 4.9c2.4 1.4 3.2 4.5 1.8 7zm17.6 65.6-4.9 8.5c-.9 1.6-2.7 2.5-4.4 2.5-.9 0-1.7-.2-2.5-.7-2.4-1.4-3.3-4.5-1.9-7l4.9-8.5c1.4-2.4 4.5-3.3 7-1.9 2.3 1.6 3.2 4.7 1.8 7.1zm24.7 13.7c0 2.8-2.3 5.1-5.1 5.1s-5.1-2.3-5.1-5.1v-9.8c0-2.8 2.3-5.1 5.1-5.1s5.1 2.3 5.1 5.1zm26.4-3.3c-.8.5-1.7.7-2.5.7-1.8 0-3.5-.9-4.4-2.5l-4.9-8.5c-1.4-2.4-.6-5.5 1.9-7 2.5-1.4 5.5-.6 7 1.9l4.9 8.5c1.3 2.4.4 5.5-2 6.9zm-31.5-18.2c-20 0-36.3-16.3-36.3-36.3s16.3-36.3 36.3-36.3 36.3 16.3 36.3 36.3-16.3 36.3-36.3 36.3zm54.5-4.8c-1 1.6-2.7 2.5-4.4 2.5-.9 0-1.7-.2-2.5-.7l-8.5-4.9c-2.4-1.4-3.3-4.5-1.9-7s4.5-3.3 7-1.9l8.5 4.9c2.4 1.5 3.2 4.6 1.8 7.1zm3.4-26.4h-9.8c-2.8 0-5.1-2.3-5.1-5.1s2.3-5.1 5.1-5.1h9.8c2.8 0 5.1 2.3 5.1 5.1s-2.3 5.1-5.1 5.1zm-31.8-5.1c0 14.4-11.7 26.1-26.1 26.1s-26.1-11.7-26.1-26.1 11.7-26.1 26.1-26.1 26.1 11.7 26.1 26.1z" fill="url(#SVGID_1_)"></path></svg>