<!-- icon666.com - MILLIONS vector ICONS FREE --><svg xmlns="http://www.w3.org/2000/svg" viewBox="0 0 60 60"><defs><style>.cls-1{fill:#3b97d3;}.cls-2{fill:#f0c419;}.cls-3{fill:#f29c1f;}.cls-4{fill:#547580;}</style></defs><g id="Icons"><path class="cls-1" d="M53.41,18.67A26.077,26.077,0,1,0,56,30,26.1,26.1,0,0,0,53.41,18.67Z"></path><path class="cls-2" d="M34.95,34.95a7,7,0,1,1-2.78-11.6A7,7,0,0,1,34.95,34.95Z"></path><path class="cls-3" d="M34.03,24.28c-.089.155-9.587,9.651-9.76,9.75a6.587,6.587,0,0,1-.92-1.86l8.82-8.82A6.33,6.33,0,0,1,34.03,24.28Z"></path><path class="cls-3" d="M36.65,27.83l-8.82,8.82a6.342,6.342,0,0,1-1.86-.93c.074-.13,9.59-9.658,9.75-9.75A6.357,6.357,0,0,1,36.65,27.83Z"></path><path class="cls-4" d="M46.163,30a101.5,101.5,0,0,0,8.089-10.79c3.25-5.068,8.144-14.129,4.4-17.867S45.858,2.5,40.791,5.748A101.407,101.407,0,0,0,30,13.837,101.5,101.5,0,0,0,19.21,5.748C14.142,2.5,5.078-2.4,1.343,1.343S2.5,14.142,5.748,19.209A101.407,101.407,0,0,0,13.837,30,101.5,101.5,0,0,0,5.748,40.79C2.5,45.858-2.4,54.919,1.343,58.657A5.091,5.091,0,0,0,5.092,60c4.355,0,10.344-3.332,14.117-5.752A101.407,101.407,0,0,0,30,46.163a101.5,101.5,0,0,0,10.79,8.089C44.564,56.672,50.553,60,54.908,60a5.1,5.1,0,0,0,3.749-1.347c3.739-3.738-1.155-12.8-4.4-17.866A101.407,101.407,0,0,0,46.163,30ZM41.87,7.432c9.006-5.775,13.846-6.2,15.373-4.675s1.1,6.367-4.675,15.374A98.983,98.983,0,0,1,44.843,28.46c-2-2.293-4.151-4.6-6.426-6.877s-4.584-4.427-6.877-6.426A98.884,98.884,0,0,1,41.87,7.432ZM30,43.54c-2.333-2.023-4.686-4.22-7-6.537s-4.514-4.67-6.537-7c2.023-2.333,4.22-4.686,6.537-7s4.67-4.514,7-6.537c2.333,2.023,4.686,4.22,7,6.537s4.514,4.67,6.537,7c-2.023,2.333-4.22,4.686-6.537,7S32.333,41.517,30,43.54ZM2.757,2.757c1.527-1.529,6.367-1.1,15.374,4.675A98.983,98.983,0,0,1,28.46,15.157c-2.293,2-4.6,4.151-6.877,6.426s-4.427,4.584-6.426,6.877A98.884,98.884,0,0,1,7.432,18.13C1.656,9.124,1.23,4.284,2.757,2.757ZM18.13,52.568c-9.006,5.775-13.846,6.2-15.373,4.675s-1.1-6.367,4.675-15.374A98.983,98.983,0,0,1,15.157,31.54c2,2.293,4.151,4.6,6.426,6.877s4.584,4.427,6.877,6.426A98.884,98.884,0,0,1,18.13,52.568Zm39.113,4.675c-1.526,1.527-6.368,1.1-15.374-4.675A98.983,98.983,0,0,1,31.54,44.843c2.293-2,4.6-4.151,6.877-6.426s4.427-4.584,6.426-6.877a98.884,98.884,0,0,1,7.725,10.33C58.344,50.876,58.77,55.716,57.243,57.243Z"></path></g></svg>