<!-- icon666.com - MILLIONS vector ICONS FREE --><svg version="1.1" id="Capa_1" xmlns="http://www.w3.org/2000/svg" xmlns:xlink="http://www.w3.org/1999/xlink" x="0px" y="0px" viewBox="0 0 204.8 204.8" style="enable-background:new 0 0 204.8 204.8;" xml:space="preserve"><path d="M102.219,204.729c-0.775,0-1.553-0.01-2.33-0.031c-1.884-0.046-3.374-1.611-3.328-3.497 c0.046-1.884,1.608-3.439,3.497-3.326c0.775,0.017,1.55,0.029,2.335,0.027c3.613,0,7.252-0.203,10.822-0.604 c1.884-0.215,3.564,1.137,3.773,3.011c0.212,1.874-1.137,3.564-3.011,3.773C110.095,204.517,106.153,204.747,102.219,204.729z M86.398,203.442c-0.183,0-0.367-0.014-0.553-0.044c-4.634-0.753-9.255-1.838-13.737-3.224c-1.801-0.556-2.809-2.468-2.253-4.27 c0.556-1.801,2.466-2.807,4.268-2.253c4.181,1.294,8.494,2.306,12.817,3.011c1.86,0.302,3.123,2.057,2.821,3.917 C89.491,202.252,88.04,203.442,86.398,203.442z M127.01,201.645c-1.522,0-2.91-1.026-3.304-2.567 c-0.468-1.826,0.635-3.686,2.459-4.154c4.246-1.087,8.455-2.481,12.506-4.145c1.744-0.712,3.738,0.116,4.453,1.862 c0.715,1.746-0.118,3.738-1.862,4.454c-4.342,1.782-8.852,3.277-13.404,4.442C127.575,201.612,127.29,201.645,127.01,201.645z M60.394,195.402c-0.486,0-0.98-0.104-1.447-0.323c-4.239-1.99-8.387-4.299-12.322-6.859c-1.58-1.029-2.028-3.144-0.998-4.724 c1.029-1.58,3.142-2.028,4.722-1c3.673,2.391,7.542,4.545,11.498,6.402c1.707,0.802,2.441,2.833,1.64,4.54 C62.904,194.676,61.676,195.402,60.394,195.402z M152.206,191.306c-1.174,0-2.318-0.606-2.951-1.693 c-0.951-1.628-0.399-3.719,1.229-4.668c3.773-2.202,7.441-4.693,10.897-7.404c1.485-1.162,3.63-0.905,4.792,0.579 c1.164,1.483,0.905,3.628-0.579,4.792c-3.7,2.903-7.627,5.572-11.67,7.929C153.382,191.157,152.789,191.306,152.206,191.306z M37.593,180.567c-0.792,0-1.587-0.275-2.234-0.833c-3.543-3.07-6.909-6.419-10.003-9.948c-1.242-1.418-1.101-3.575,0.319-4.816 c1.418-1.244,3.574-1.102,4.816,0.317c2.888,3.299,6.03,6.424,9.337,9.288c1.425,1.236,1.579,3.389,0.345,4.814 C39.499,180.17,38.548,180.567,37.593,180.567z M173.611,174.497c-0.853,0-1.708-0.319-2.371-0.959 c-1.355-1.309-1.394-3.47-0.085-4.826c3.045-3.152,5.898-6.542,8.48-10.076c1.111-1.524,3.249-1.853,4.768-0.744 c1.522,1.113,1.855,3.248,0.742,4.77c-2.765,3.785-5.821,7.417-9.079,10.793C175.396,174.149,174.505,174.497,173.611,174.497z M19.663,160.098c-1.111,0-2.2-0.539-2.855-1.536c-2.586-3.93-4.917-8.069-6.929-12.298c-0.811-1.703-0.085-3.739,1.616-4.55 c1.707-0.809,3.739-0.084,4.548,1.616c1.877,3.948,4.053,7.81,6.467,11.479c1.036,1.575,0.599,3.692-0.976,4.729 C20.956,159.917,20.304,160.098,19.663,160.098z M189.652,152.527c-0.544,0-1.099-0.13-1.611-0.406 c-1.661-0.891-2.284-2.961-1.391-4.622c2.07-3.857,3.891-7.89,5.41-11.991c0.654-1.768,2.623-2.666,4.386-2.017 c1.768,0.655,2.669,2.62,2.016,4.386c-1.628,4.396-3.579,8.719-5.799,12.851C192.046,151.875,190.868,152.527,189.652,152.527z M7.967,135.511c-1.451,0-2.797-0.934-3.255-2.389c-1.41-4.475-2.517-9.091-3.294-13.722c-0.312-1.859,0.942-3.618,2.801-3.932 c1.857-0.311,3.618,0.942,3.93,2.802c0.725,4.318,1.76,8.627,3.074,12.802c0.567,1.799-0.432,3.715-2.231,4.28 C8.651,135.46,8.306,135.511,7.967,135.511z M199.098,127.016c-0.242,0-0.488-0.026-0.734-0.079 c-1.841-0.403-3.007-2.224-2.604-4.065c0.935-4.27,1.582-8.653,1.92-13.027c0.147-1.879,1.778-3.29,3.668-3.139 c1.881,0.147,3.285,1.789,3.139,3.668c-0.364,4.685-1.056,9.382-2.06,13.957C202.08,125.927,200.666,127.016,199.098,127.016z M3.454,108.674c-1.84,0-3.357-1.463-3.41-3.313C0.015,104.355,0,103.342,0,102.329c0-3.697,0.2-7.417,0.591-11.059 c0.201-1.874,1.884-3.232,3.76-3.028C6.224,88.443,7.581,90.126,7.38,92c-0.365,3.401-0.551,6.878-0.553,10.33 c0,0.949,0.014,1.893,0.041,2.833c0.055,1.884-1.428,3.456-3.313,3.512C3.521,108.674,3.487,108.674,3.454,108.674z M201.387,105.742c-1.884,0-3.413-1.529-3.413-3.413c0-4.396-0.3-8.818-0.894-13.141c-0.256-1.869,1.05-3.591,2.917-3.847 c1.865-0.266,3.589,1.05,3.845,2.917c0.637,4.632,0.959,9.366,0.959,14.071C204.8,104.213,203.271,105.742,201.387,105.742z M6.376,81.62c-0.275,0-0.553-0.034-0.831-0.102c-1.828-0.459-2.941-2.311-2.481-4.14c1.138-4.553,2.609-9.068,4.369-13.42 c0.707-1.748,2.7-2.587,4.444-1.884c1.748,0.707,2.592,2.697,1.884,4.444c-1.64,4.058-3.012,8.27-4.076,12.517 C9.296,80.586,7.905,81.62,6.376,81.62z M197.671,78.787c-1.49,0-2.859-0.983-3.284-2.487c-1.191-4.219-2.69-8.39-4.451-12.399 c-0.759-1.727,0.024-3.739,1.749-4.5c1.724-0.759,3.739,0.024,4.499,1.749c1.891,4.299,3.497,8.771,4.774,13.292 c0.512,1.814-0.543,3.702-2.357,4.214C198.291,78.743,197.977,78.787,197.671,78.787z M16.565,56.401 c-0.579,0-1.164-0.147-1.702-0.457c-1.633-0.94-2.195-3.028-1.253-4.661c2.34-4.058,4.985-7.997,7.864-11.704 c1.155-1.49,3.301-1.76,4.789-0.604c1.488,1.155,1.76,3.302,0.602,4.791c-2.688,3.463-5.158,7.141-7.342,10.928 C18.893,55.786,17.744,56.401,16.565,56.401z M186.721,53.859c-1.145,0-2.263-0.575-2.908-1.621 c-2.297-3.724-4.876-7.327-7.67-10.709c-1.2-1.456-0.995-3.604,0.461-4.804c1.456-1.2,3.604-0.993,4.804,0.459 c2.99,3.625,5.755,7.485,8.214,11.474c0.99,1.604,0.492,3.707-1.113,4.697C187.95,53.697,187.332,53.859,186.721,53.859z M33.253,34.909c-0.887,0-1.775-0.343-2.444-1.031c-1.316-1.348-1.29-3.511,0.06-4.826c3.364-3.284,6.98-6.359,10.747-9.137 c1.516-1.121,3.654-0.799,4.774,0.717c1.12,1.517,0.799,3.654-0.719,4.774c-3.516,2.598-6.893,5.468-10.035,8.535 C34.973,34.584,34.113,34.909,33.253,34.909z M169.392,32.867c-0.826,0-1.654-0.299-2.311-0.901 c-3.224-2.964-6.683-5.733-10.279-8.228c-1.55-1.073-1.934-3.2-0.86-4.75c1.074-1.55,3.2-1.935,4.75-0.86 c3.854,2.671,7.559,5.639,11.011,8.815c1.388,1.277,1.478,3.436,0.201,4.823C171.232,32.495,170.312,32.867,169.392,32.867z M55.151,18.74c-1.21,0-2.383-0.643-3-1.782c-0.901-1.655-0.29-3.729,1.365-4.63c4.125-2.244,8.445-4.222,12.839-5.874 c1.763-0.662,3.732,0.23,4.396,1.993c0.664,1.765-0.229,3.734-1.993,4.396c-4.101,1.541-8.131,3.386-11.979,5.482 C56.262,18.606,55.702,18.74,55.151,18.74z M147.033,17.367c-0.519,0-1.044-0.118-1.539-0.369c-3.91-1.978-7.991-3.7-12.131-5.117 c-1.783-0.611-2.734-2.551-2.123-4.335c0.611-1.785,2.548-2.736,4.335-2.125c4.437,1.521,8.813,3.366,13.003,5.487 c1.681,0.85,2.355,2.905,1.504,4.588C149.48,16.683,148.279,17.367,147.033,17.367z M80.633,9.155c-1.562,0-2.971-1.079-3.328-2.666 c-0.413-1.838,0.744-3.664,2.584-4.077c4.569-1.026,9.262-1.743,13.947-2.13c1.867-0.155,3.528,1.241,3.683,3.12 c0.155,1.879-1.242,3.528-3.12,3.683c-4.372,0.362-8.752,1.031-13.015,1.987C81.132,9.128,80.881,9.155,80.633,9.155z M121.293,8.554c-0.213,0-0.432-0.02-0.65-0.061c-4.291-0.829-8.687-1.369-13.071-1.601c-1.882-0.101-3.326-1.707-3.227-3.591 c0.101-1.882,1.722-3.311,3.591-3.227c4.695,0.249,9.407,0.826,14.003,1.715c1.85,0.358,3.062,2.149,2.703,4 C124.326,7.421,122.897,8.554,121.293,8.554z"></path><path d="M103.375,180.829c-1.865,0-3.388-1.5-3.413-3.371c-0.024-1.884,1.485-3.434,3.371-3.456 c4.352-0.055,8.707-0.503,12.943-1.335c1.85-0.364,3.642,0.843,4.006,2.693c0.364,1.85-0.843,3.644-2.693,4.007 c-4.64,0.91-9.409,1.401-14.17,1.461C103.404,180.829,103.39,180.829,103.375,180.829z M89.789,179.781 c-0.189,0-0.382-0.015-0.573-0.048c-4.687-0.794-9.322-2.022-13.776-3.651c-1.772-0.649-2.681-2.608-2.034-4.378 c0.647-1.77,2.608-2.674,4.378-2.034c4.065,1.487,8.296,2.608,12.573,3.333c1.859,0.316,3.11,2.077,2.796,3.936 C92.868,178.603,91.423,179.781,89.789,179.781z M130.017,175.594c-1.359,0-2.645-0.817-3.174-2.161 c-0.693-1.753,0.166-3.736,1.92-4.429c4.019-1.591,7.927-3.565,11.612-5.869c1.596-1,3.702-0.515,4.704,1.084 c0.998,1.599,0.514,3.703-1.084,4.704c-4.036,2.524-8.317,4.688-12.721,6.431C130.86,175.517,130.435,175.594,130.017,175.594z M64.288,170.462c-0.591,0-1.188-0.152-1.732-0.474c-4.084-2.41-7.974-5.212-11.563-8.322c-1.423-1.236-1.579-3.391-0.343-4.814 c1.236-1.427,3.389-1.579,4.815-0.343c3.279,2.842,6.833,5.4,10.563,7.603c1.623,0.959,2.162,3.05,1.203,4.673 C66.594,169.861,65.458,170.462,64.288,170.462z M153.039,161.193c-0.925,0-1.848-0.374-2.521-1.111 c-1.271-1.391-1.174-3.55,0.217-4.821c3.2-2.924,6.153-6.156,8.779-9.61c1.14-1.502,3.284-1.794,4.784-0.652 c1.5,1.14,1.792,3.282,0.652,4.782c-2.874,3.782-6.106,7.32-9.609,10.52C154.685,160.898,153.861,161.193,153.039,161.193z M43.778,152.674c-1,0-1.992-0.437-2.666-1.278c-2.971-3.703-5.618-7.7-7.871-11.882c-0.894-1.659-0.273-3.731,1.386-4.623 c1.664-0.891,3.731-0.271,4.623,1.386c2.057,3.816,4.475,7.467,7.187,10.848c1.179,1.469,0.944,3.618-0.527,4.799 C45.281,152.428,44.527,152.674,43.778,152.674z M169.458,139.572c-0.519,0-1.044-0.118-1.538-0.367 c-1.683-0.852-2.357-2.905-1.505-4.588c1.956-3.869,3.565-7.938,4.784-12.095c0.531-1.809,2.427-2.848,4.236-2.314 c1.809,0.531,2.845,2.427,2.316,4.234c-1.336,4.557-3.099,9.015-5.243,13.256C171.906,138.887,170.704,139.572,169.458,139.572z M30.901,128.768c-1.442,0-2.782-0.922-3.248-2.371c-1.452-4.514-2.499-9.194-3.108-13.908c-0.242-1.87,1.077-3.582,2.947-3.823 c1.871-0.251,3.581,1.079,3.823,2.947c0.556,4.304,1.51,8.574,2.836,12.694c0.577,1.794-0.41,3.717-2.203,4.296 C31.601,128.715,31.249,128.768,30.901,128.768z M177.101,113.521c-0.116,0-0.236-0.005-0.353-0.019 c-1.876-0.193-3.239-1.87-3.046-3.744c0.253-2.454,0.381-4.953,0.379-7.429c0-4.357-0.393-8.716-1.169-12.962 c-0.34-1.855,0.889-3.632,2.744-3.971c1.847-0.329,3.632,0.889,3.971,2.744c0.85,4.649,1.28,9.423,1.28,14.186 c0,2.707-0.14,5.443-0.416,8.131C180.311,112.215,178.828,113.521,177.101,113.521z M27.409,101.847 c-0.058,0-0.118-0.002-0.177-0.005c-1.882-0.097-3.33-1.7-3.234-3.584c0.244-4.751,0.922-9.498,2.012-14.106 c0.435-1.835,2.272-2.961,4.11-2.534c1.835,0.435,2.968,2.275,2.534,4.108c-0.997,4.207-1.616,8.54-1.838,12.882 C30.722,100.431,29.213,101.847,27.409,101.847z M172.609,79.04c-1.376,0-2.673-0.838-3.191-2.202 c-1.541-4.048-3.465-7.98-5.719-11.687c-0.98-1.611-0.468-3.71,1.143-4.69c1.613-0.978,3.71-0.466,4.69,1.143 c2.47,4.062,4.577,8.37,6.265,12.807c0.671,1.761-0.213,3.734-1.976,4.403C173.421,78.966,173.012,79.04,172.609,79.04z M33.673,75.432c-0.461,0-0.928-0.096-1.377-0.294c-1.725-0.761-2.505-2.777-1.743-4.502c1.917-4.335,4.244-8.527,6.919-12.455 c1.062-1.558,3.185-1.959,4.743-0.899c1.558,1.062,1.961,3.185,0.899,4.743c-2.444,3.587-4.569,7.414-6.318,11.372 C36.233,74.672,34.983,75.432,33.673,75.432z M158.508,55.832c-0.94,0-1.876-0.387-2.55-1.143c-2.883-3.239-6.079-6.234-9.496-8.904 c-1.487-1.159-1.751-3.304-0.59-4.791c1.161-1.485,3.306-1.753,4.791-0.591c3.741,2.92,7.24,6.199,10.395,9.743 c1.254,1.408,1.128,3.567-0.28,4.82C160.128,55.547,159.317,55.832,158.508,55.832z M48.954,52.991 c-0.867,0-1.734-0.328-2.398-0.985c-1.341-1.324-1.355-3.485-0.031-4.826c3.34-3.381,7.002-6.475,10.883-9.196 c1.545-1.082,3.673-0.705,4.755,0.838c1.082,1.545,0.707,3.673-0.838,4.755c-3.546,2.483-6.893,5.308-9.945,8.399 C50.714,52.651,49.835,52.991,48.954,52.991z M137.1,39.129c-0.532,0-1.072-0.123-1.577-0.387 c-3.843-2.007-7.893-3.669-12.034-4.944c-1.802-0.553-2.813-2.463-2.258-4.265c0.555-1.804,2.461-2.813,4.267-2.258 c4.536,1.394,8.972,3.219,13.184,5.415c1.671,0.874,2.319,2.935,1.447,4.606C139.52,38.464,138.33,39.129,137.1,39.129z M71.2,37.419c-1.295,0-2.533-0.741-3.106-1.993c-0.783-1.715-0.031-3.739,1.684-4.523c4.321-1.976,8.849-3.565,13.454-4.722 c1.831-0.461,3.683,0.652,4.142,2.478c0.459,1.828-0.65,3.683-2.48,4.142c-4.204,1.056-8.334,2.505-12.276,4.308 C72.158,37.32,71.675,37.419,71.2,37.419z M111.159,31.154c-0.131,0-0.265-0.007-0.398-0.024c-4.294-0.498-8.74-0.608-13.013-0.333 c-1.864,0.13-3.504-1.307-3.625-3.188c-0.119-1.882,1.307-3.504,3.188-3.625c4.68-0.299,9.539-0.177,14.235,0.367 c1.872,0.217,3.215,1.911,2.997,3.784C114.343,29.872,112.867,31.154,111.159,31.154z"></path><path d="M102.4,153.529c-2.439,0-4.888-0.174-7.281-0.515c-1.867-0.265-3.164-1.993-2.898-3.86c0.265-1.867,1.99-3.164,3.86-2.896 c4.152,0.589,8.489,0.59,12.64-0.002c1.87-0.247,3.594,1.031,3.86,2.898c0.266,1.867-1.031,3.594-2.898,3.862 C107.293,153.355,104.841,153.529,102.4,153.529z M82.546,149.223c-0.474,0-0.957-0.099-1.418-0.311 c-4.437-2.029-8.561-4.683-12.256-7.888c-1.423-1.236-1.579-3.389-0.343-4.814c1.234-1.423,3.391-1.577,4.814-0.341 c3.203,2.777,6.779,5.079,10.624,6.839c1.713,0.783,2.468,2.809,1.684,4.523C85.079,148.486,83.84,149.223,82.546,149.223z M122.262,149.218c-1.295,0-2.533-0.739-3.106-1.993c-0.785-1.714-0.032-3.738,1.683-4.523c3.843-1.76,7.417-4.062,10.622-6.842 c1.425-1.234,3.581-1.082,4.815,0.341s1.082,3.581-0.341,4.814c-3.697,3.207-7.82,5.862-12.254,7.892 C123.22,149.12,122.737,149.218,122.262,149.218z M62.199,131.581c-1.121,0-2.22-0.551-2.874-1.565 c-2.65-4.116-4.69-8.576-6.064-13.261c-0.531-1.809,0.507-3.705,2.316-4.234c1.801-0.538,3.705,0.505,4.236,2.314 c1.188,4.055,2.954,7.919,5.251,11.484c1.021,1.585,0.563,3.697-1.022,4.719C63.473,131.407,62.831,131.581,62.199,131.581z M142.607,131.572c-0.633,0-1.273-0.176-1.845-0.543c-1.585-1.021-2.043-3.133-1.022-4.719c2.295-3.565,4.062-7.429,5.248-11.482 c0.531-1.811,2.423-2.843,4.234-2.318c1.809,0.531,2.847,2.427,2.316,4.234c-1.37,4.683-3.41,9.144-6.06,13.262 C144.828,131.021,143.729,131.572,142.607,131.572z M150.187,105.742c-1.884,0-3.413-1.529-3.413-3.413 c0-4.255-0.601-8.462-1.785-12.505c-0.531-1.811,0.507-3.705,2.316-4.234c1.814-0.538,3.705,0.507,4.236,2.314 c1.367,4.668,2.062,9.52,2.062,14.425C153.6,104.213,152.071,105.742,150.187,105.742z M54.613,105.742 c-1.884,0-3.413-1.529-3.413-3.413c0-4.905,0.693-9.759,2.06-14.421c0.531-1.811,2.432-2.854,4.236-2.314 c1.809,0.531,2.845,2.427,2.316,4.234c-1.184,4.04-1.785,8.247-1.785,12.501C58.027,104.213,56.497,105.742,54.613,105.742z M62.188,79.908c-0.633,0-1.273-0.176-1.845-0.543c-1.585-1.021-2.043-3.133-1.022-4.719c2.642-4.103,5.854-7.806,9.545-11.01 c1.425-1.236,3.581-1.082,4.815,0.341c1.236,1.423,1.082,3.581-0.341,4.815c-3.202,2.778-5.987,5.992-8.279,9.55 C64.41,79.357,63.311,79.908,62.188,79.908z M142.609,79.905c-1.121,0-2.22-0.551-2.874-1.565c-2.292-3.56-5.077-6.774-8.281-9.55 c-1.423-1.236-1.579-3.389-0.343-4.815c1.234-1.423,3.389-1.577,4.815-0.341c3.693,3.202,6.905,6.905,9.549,11.01 c1.021,1.585,0.563,3.698-1.022,4.719C143.882,79.731,143.242,79.905,142.609,79.905z M122.252,62.263 c-0.474,0-0.957-0.099-1.418-0.309c-3.849-1.76-7.924-2.954-12.116-3.553c-1.867-0.265-3.164-1.993-2.898-3.86 c0.266-1.867,1.993-3.162,3.86-2.896c4.838,0.689,9.547,2.07,13.99,4.099c1.713,0.785,2.47,2.809,1.684,4.524 C124.785,61.524,123.546,62.263,122.252,62.263z M82.546,62.263c-1.295,0-2.533-0.739-3.106-1.993 c-0.783-1.713-0.031-3.739,1.684-4.523c4.442-2.033,9.149-3.413,13.993-4.103c1.872-0.261,3.596,1.031,3.86,2.896 c0.266,1.867-1.031,3.594-2.898,3.86c-4.193,0.599-8.27,1.794-12.116,3.553C83.504,62.166,83.022,62.263,82.546,62.263z"></path><circle style="fill:#FBAD4A;" cx="102.4" cy="102.332" r="20.48"></circle><path d="M102.4,126.222c-13.175,0-23.893-10.718-23.893-23.893S89.225,78.435,102.4,78.435s23.893,10.718,23.893,23.893 S115.575,126.222,102.4,126.222z M102.4,85.262c-9.411,0-17.067,7.656-17.067,17.067s7.656,17.067,17.067,17.067 s17.067-7.656,17.067-17.067S111.811,85.262,102.4,85.262z"></path></svg>