<!-- icon666.com - MILLIONS vector ICONS FREE --><svg id="Layer_5" enable-background="new 0 0 64 64" viewBox="0 0 64 64" xmlns="http://www.w3.org/2000/svg"><path d="m34.52 39.59c-.79.27-1.64.41-2.52.41-4.42 0-8-3.58-8-8 0-.88.14-1.73.41-2.52 3.72 3 7.11 6.39 10.11 10.11z" fill="#ffeaa7"></path><path d="m32 24c4.42 0 8 3.58 8 8 0 .88-.14 1.73-.41 2.52-3.72-3-7.11-6.39-10.11-10.11.8-.27 1.64-.41 2.52-.41z" fill="#ffeaa7"></path><path d="m29.48 24.41c3 3.72 6.39 7.11 10.11 10.11-.39 1.2-1.06 2.27-1.93 3.14s-1.94 1.54-3.14 1.93c-3-3.72-6.39-7.11-10.11-10.11l-.6-.48-4.66-3.77-4.66-3.77v-.01l-7.95-6.42 8.49-8.49 6.42 7.94 3.77 4.67 3.78 4.66z" fill="#fcd770"></path><path d="m57.46 48.97-8.49 8.49-6.42-7.94c1.25-1.01 2.48-2.11 3.67-3.3 1.18-1.18 2.28-2.41 3.29-3.67z" fill="#fcd770"></path><g fill="#69d6f4"><path d="m33.67 54.91h.01c.2.32.32.69.32 1.09 0 1.1-.9 2-2 2-1.04 0-1.91-.81-1.99-1.84-.01-.05-.01-.1-.01-.16 0-1.1.9-2 2-2 .7 0 1.32.36 1.67.91z"></path><path d="m26.95 44.56c.03.14.05.29.05.44 0 1.1-.9 2-2 2s-2-.9-2-2c0-.03 0-.06 0-.09.05-1.06.93-1.91 2-1.91.95 0 1.75.67 1.95 1.56z"></path><path d="m10 46c0 .83-.51 1.54-1.23 1.85-.24.1-.5.15-.77.15-1.1 0-2-.9-2-2 0-.91.61-1.68 1.45-1.92.17-.05.36-.08.55-.08 1.1 0 2 .9 2 2z"></path><path d="m15.84 30.19c.68.31 1.16 1.01 1.16 1.81 0 1.1-.9 2-2 2-.29 0-.57-.06-.82-.18-.69-.31-1.18-1.01-1.18-1.82 0-1.1.9-2 2-2 .3 0 .58.07.84.19z"></path><path d="m38 5c1.1 0 2 .9 2 2s-.9 2-2 2c-.97 0-1.79-.7-1.96-1.63-.03-.12-.04-.24-.04-.37 0-1.1.9-2 2-2z"></path><path d="m39 17c1.1 0 2 .9 2 2v.09c-.05 1.06-.93 1.91-2 1.91-.95 0-1.75-.67-1.95-1.56-.03-.14-.05-.29-.05-.44 0-1.1.9-2 2-2z"></path><path d="m50.83 22.01c.05-.01.11-.01.17-.01 1.1 0 2 .9 2 2s-.9 2-2 2c-.05 0-.1 0-.14-.01-1.04-.07-1.86-.94-1.86-1.99 0-1.04.81-1.9 1.83-1.99z"></path></g><path d="m50.895 42.378c2.547-3.336 4.527-6.893 5.714-10.377 2.762-8.107 1.394-15.709-3.753-20.854-3.116-3.118-7.365-4.899-12.026-5.103-.403-1.185-1.512-2.044-2.83-2.044-1.505 0-2.743 1.118-2.956 2.565-4.493.968-9.099 3.208-13.43 6.531l-5.807-7.181-1.555 1.258 14.448 17.865c2.89 3.573 6.158 6.854 9.701 9.783-.705 1.593-1.987 2.875-3.58 3.58-2.93-3.543-6.21-6.81-9.783-9.701l-17.865-14.448-1.258 1.555 7.185 5.81c-2.559 3.352-4.53 6.921-5.708 10.382-1.35 3.966-1.705 7.923-1.063 11.512-.801.539-1.329 1.453-1.329 2.489 0 1.654 1.346 3 3 3 .084 0 .164-.018.247-.025.784 1.422 1.748 2.729 2.898 3.878 3.318 3.319 7.905 5.147 12.914 5.147 1.693 0 3.466-.226 5.279-.646.497.972 1.497 1.646 2.662 1.646 1.654 0 3-1.346 3-3 0-.196-.022-.387-.058-.572 2.533-1.154 5.045-2.671 7.45-4.516l5.801 7.173 1.555-1.258-5.797-7.167c1.018-.856 2.013-1.766 2.976-2.73.961-.96 1.862-1.964 2.719-2.988l7.18 5.807 1.258-1.555zm-12.895-36.378c.552 0 1 .448 1 1s-.448 1-1 1-1-.448-1-1 .448-1 1-1zm13 19c-.552 0-1-.448-1-1s.448-1 1-1 1 .448 1 1-.448 1-1 1zm-1.282 1.701c-.16.902-.372 1.811-.682 2.721-1.36 3.995-4.118 8.204-7.765 11.851-5.463 5.464-11.899 8.727-17.213 8.727-2.913 0-5.422-.969-7.256-2.803-2.831-2.83-3.522-7.266-1.954-12.213.051.003.1.016.152.016 1.654 0 3-1.346 3-3 0-.81-.326-1.544-.85-2.084.643-1.104 1.37-2.196 2.174-3.265l3.106 2.512c-4.57 6.098-5.743 12.264-2.801 15.206.652.652 1.486 1.103 2.471 1.363.33 1.3 1.499 2.268 2.9 2.268 1.559 0 2.829-1.2 2.972-2.722 3.448-1.135 7.219-3.581 10.471-6.834 3.222-3.221 5.639-6.883 6.807-10.311 1.248-3.667.936-6.687-.88-8.502-.652-.652-1.486-1.103-2.471-1.363-.329-1.3-1.498-2.268-2.899-2.268-1.556 0-2.824 1.195-2.971 2.712-2.231.732-4.575 2.001-6.867 3.717l-2.511-3.105c4.48-3.382 9.276-5.324 13.29-5.324 2.915 0 5.424.969 7.257 2.803 1.23 1.229 2.036 2.761 2.454 4.532-.975.495-1.652 1.498-1.652 2.665 0 1.194.706 2.218 1.718 2.701zm-34.718 4.299c.552 0 1 .448 1 1s-.448 1-1 1-1-.448-1-1 .448-1 1-1zm21.504-10.34c.538.807 1.455 1.34 2.496 1.34 1.189 0 2.209-.701 2.694-1.706.501.173.929.418 1.261.75 1.23 1.23 1.377 3.578.401 6.442-.523 1.536-1.331 3.129-2.366 4.709.001-.065.01-.129.01-.195 0-4.963-4.037-9-9-9-.058 0-.116.006-.174.007 1.583-1.031 3.178-1.835 4.678-2.347zm1.496-1.66c0-.552.448-1 1-1s1 .448 1 1-.448 1-1 1-1-.448-1-1zm-10.509 24.332c-.539-.803-1.454-1.332-2.491-1.332-1.189 0-2.209.7-2.694 1.706-.501-.173-.929-.418-1.261-.75-1.945-1.944-1.067-6.486 1.962-11.135-.001.059-.007.119-.007.179 0 4.963 4.037 9 9 9 .058 0 .114-.008.172-.009-1.578 1.032-3.165 1.826-4.681 2.341zm-1.491 1.668c0 .552-.448 1-1 1s-1-.448-1-1 .448-1 1-1 1 .448 1 1zm5.341-19.947c.219-.021.437-.053.659-.053 3.859 0 7 3.141 7 7 0 .228-.013.453-.034.675-2.74-2.331-5.293-4.883-7.625-7.622zm1.334 13.913c-.222.021-.447.034-.675.034-3.859 0-7-3.141-7-7 0-.222.032-.44.052-.659 2.74 2.332 5.292 4.885 7.623 7.625zm-25.675 7.034c0-.552.448-1 1-1s1 .448 1 1-.448 1-1 1-1-.448-1-1zm25 11c-.552 0-1-.448-1-1s.448-1 1-1 1 .448 1 1-.448 1-1 1zm13.514-11.484c-3.572 3.573-7.573 6.384-11.608 8.187-.52-.433-1.179-.703-1.906-.703-1.435 0-2.635 1.014-2.928 2.362-1.731.415-3.416.638-5.014.638-4.475 0-8.558-1.62-11.499-4.561-.976-.977-1.803-2.082-2.482-3.283.567-.546.923-1.308.923-2.156 0-1.561-1.203-2.833-2.728-2.973-.549-3.221-.211-6.788 1.013-10.384 1.104-3.243 2.958-6.601 5.371-9.768l3.113 2.518c-.898 1.189-1.707 2.408-2.419 3.642-.116-.013-.23-.035-.35-.035-1.654 0-3 1.346-3 3 0 .877.384 1.659.986 2.208-1.878 5.752-1.012 10.99 2.402 14.403 2.216 2.217 5.215 3.389 8.671 3.389 5.833 0 12.796-3.481 18.627-9.313 3.858-3.858 6.786-8.341 8.243-12.62.359-1.054.604-2.112.782-3.161 1.31-.321 2.289-1.498 2.289-2.906 0-1.423-.998-2.613-2.33-2.918-.487-2.211-1.531-4.167-3.057-5.693-2.217-2.217-5.215-3.389-8.672-3.389-4.524 0-9.657 2.055-14.548 5.77l-2.522-3.119c4.074-3.119 8.38-5.219 12.56-6.124.525.878 1.474 1.473 2.569 1.473 1.287 0 2.377-.818 2.803-1.958 4.136.195 7.891 1.772 10.639 4.519 4.587 4.586 5.78 11.437 3.274 18.796-1.652 4.847-4.919 9.875-9.202 14.159z"></path><path d="m13.5 10.964h2v7.071h-2z" transform="matrix(.707 -.707 .707 .707 -6.006 14.5)"></path><path d="m19 18.586h2v2.828h-2z" transform="matrix(.707 -.707 .707 .707 -8.284 20)"></path><path d="m28 24.757h2v8.485h-2z" transform="matrix(.707 -.707 .707 .707 -12.012 29)"></path><path d="m50 48.172h2v5.657h-2z" transform="matrix(.707 -.707 .707 .707 -21.125 51)"></path><path d="m59 1h2v2h-2z"></path><path d="m59 5h2v2h-2z"></path><path d="m61 3h2v2h-2z"></path><path d="m57 3h2v2h-2z"></path><path d="m3 57h2v2h-2z"></path><path d="m3 61h2v2h-2z"></path><path d="m5 59h2v2h-2z"></path><path d="m1 59h2v2h-2z"></path><path d="m5 3h2v2h-2z"></path><path d="m5 7h2v2h-2z"></path><path d="m7 5h2v2h-2z"></path><path d="m3 5h2v2h-2z"></path><path d="m23 1h2v2h-2z"></path><path d="m23 5h2v2h-2z"></path><path d="m25 3h2v2h-2z"></path><path d="m21 3h2v2h-2z"></path><path d="m59 37h2v2h-2z"></path><path d="m59 41h2v2h-2z"></path><path d="m61 39h2v2h-2z"></path><path d="m57 39h2v2h-2z"></path><path d="m59 57h2v2h-2z"></path><path d="m59 61h2v2h-2z"></path><path d="m61 59h2v2h-2z"></path><path d="m57 59h2v2h-2z"></path></svg>