<!-- icon666.com - MILLIONS vector ICONS FREE --><svg id="Layer_5" enable-background="new 0 0 64 64" viewBox="0 0 64 64" xmlns="http://www.w3.org/2000/svg"><path d="m41.154 46.328 1.079 1.684c.59-.378 1.166-.793 1.711-1.234l-1.259-1.555c-.488.395-1.003.766-1.531 1.105z"></path><path d="m37.774 47.995.68 1.881c.66-.238 1.313-.517 1.942-.827l-.886-1.793c-.562.277-1.146.526-1.736.739z"></path><path d="m24.445 16.767-.89-1.791c-.709.352-1.403.753-2.062 1.192l1.107 1.665c.59-.393 1.211-.751 1.845-1.066z"></path><path d="m15.421 28.221c.868-3.826 3.066-7.264 6.19-9.679l-1.224-1.582c-3.49 2.699-5.947 6.541-6.917 10.819z"></path><path d="m63 32c0-2.582-3.089-4.807-8.928-6.454-2.798-9.549-11.63-16.546-22.072-16.546s-19.275 6.997-22.072 16.546c-5.839 1.647-8.928 3.873-8.928 6.454 0 2.763 3.572 4.924 8.923 6.436 2.791 9.559 11.629 16.564 22.077 16.564 6.742 0 13.066-2.923 17.448-8.028.183.014.366.028.552.028 3.86 0 7-3.141 7-7 0-.825-.151-1.613-.414-2.349 4.255-1.55 6.414-3.448 6.414-5.651zm-31-21c4.587 0 8.821 1.495 12.279 4h-3.279v2h5.669c3.9 3.815 6.331 9.126 6.331 15 0 .551-.024 1.103-.067 1.653-.893-.415-1.885-.653-2.933-.653h-15c-1.103 0-2-.897-2-2s.897-2 2-2h4c2.206 0 4-1.794 4-4s-1.794-4-4-4h-10c-1.103 0-2-.897-2-2s.897-2 2-2h6v-2h-6c-2.206 0-4 1.794-4 4s1.794 4 4 4h10c1.103 0 2 .897 2 2s-.897 2-2 2h-4c-2.206 0-4 1.794-4 4s1.794 4 4 4h10.111c-.937.916-1.614 2.093-1.922 3.411-3.554.386-7.308.589-11.189.589-4.478 0-8.525-.253-12.079-.679.312-.201.681-.321 1.079-.321h2c2.206 0 4-1.794 4-4s-1.794-4-4-4h-11.899c1.011-10.644 9.995-19 20.899-19zm-21 21h12c1.103 0 2 .897 2 2s-.897 2-2 2h-2c-1.474 0-2.75.81-3.444 2.001-2.227-.335-4.227-.739-5.978-1.189-.365-1.548-.578-3.154-.578-4.812zm-8 0c0-1.106 1.722-2.739 6.393-4.209-.254 1.366-.393 2.771-.393 4.209 0 1.43.138 2.828.389 4.186-4.129-1.309-6.389-2.865-6.389-4.186zm9.234 7.023c1.5.344 3.1.644 4.774.9-.001.026-.008.051-.008.077 0 2.206 1.794 4 4 4h10c1.103 0 2 .897 2 2s-.897 2-2 2h-12.569c-2.792-2.371-4.944-5.46-6.197-8.977zm19.766 13.977c-3.936 0-7.609-1.108-10.761-3h9.761c2.206 0 4-1.794 4-4s-1.794-4-4-4h-10c-1.033 0-1.876-.791-1.979-1.797 4.127.526 8.592.797 12.979.797 3.815 0 7.51-.195 11.022-.562.168 2.693 1.857 4.979 4.224 5.996-3.962 4.187-9.434 6.566-15.246 6.566zm18-8c-2.757 0-5-2.243-5-5s2.243-5 5-5 5 2.243 5 5-2.243 5-5 5zm5.632-9.14c-.249-.338-.526-.652-.83-.94.122-.966.198-1.943.198-2.92 0-1.438-.139-2.843-.393-4.209 4.67 1.469 6.393 3.101 6.393 4.209 0 1.246-2.002 2.667-5.368 3.86z"></path><path d="m50 51h3.901c-5.515 6.377-13.384 10-21.901 10-9.207 0-17.663-4.228-23.201-11.598l-1.599 1.202c5.919 7.877 14.958 12.396 24.8 12.396 8.896 0 17.128-3.702 23-10.229v3.229h2v-7h-7z"></path><path d="m14 13h-3.902c5.516-6.377 13.385-10 21.902-10 9.208 0 17.665 4.228 23.202 11.601l1.6-1.201c-5.919-7.88-14.959-12.4-24.802-12.4-8.896 0-17.127 3.702-23 10.229v-3.229h-2v7h7z"></path><path d="m37 15h2v2h-2z"></path><path d="m41 29h2v2h-2z"></path><path d="m49 29h2v2h-2z"></path><path d="m45 29h2v2h-2z"></path></svg>